<svg id="delivery-complete" xmlns="http://www.w3.org/2000/svg" viewBox="0 0 39.681 46.615">
  <defs xmlns="http://www.w3.org/2000/svg">
    <style>
      path{
        fill: #e94d65;
      }
    </style>
  </defs>
  <g id="Group_490" data-name="Group 490" transform="translate(24.767 22.342)">
    <path id="Path_922" data-name="Path 922" d="M345.47,235.631a1.167,1.167,0,0,0-1.641.184l-6.018,7.537-1.2-1.595a1.167,1.167,0,1,0-1.868,1.4l2.1,2.8a1.167,1.167,0,0,0,.916.467h.018a1.167,1.167,0,0,0,.912-.439l6.959-8.716A1.167,1.167,0,0,0,345.47,235.631Z" transform="translate(-330.994 -235.376)"/>
    <path id="Path_923" data-name="Path 923" d="M310.7,256.46a.237.237,0,0,0-.264.076l-2.335,2.924a.236.236,0,0,0-.052.148v2.34h-7.8v-7.8h4.623a.237.237,0,0,0,.185-.089l1.864-2.335a.237.237,0,0,0-.185-.385h-6.954a2.345,2.345,0,0,0-2.343,2.343v8.735a2.345,2.345,0,0,0,2.343,2.343h8.735a2.345,2.345,0,0,0,2.343-2.343v-5.73A.237.237,0,0,0,310.7,256.46Z" transform="translate(-297.442 -249.821)"/>
  </g>
  <g id="Group_491" data-name="Group 491" transform="translate(6.471 35.202)">
    <path id="Path_924" data-name="Path 924" d="M114.133,372.942h-8.392a1.044,1.044,0,1,1,0-2.088h8.392a1.044,1.044,0,1,1,0,2.088Z" transform="translate(-104.697 -370.854)"/>
  </g>
  <path id="Path_925" data-name="Path 925" d="M68.214,21.249h2.373a.237.237,0,0,0,.237-.237V10.546a5,5,0,0,0-5-4.995H63.839a3.542,3.542,0,0,0-3.184-1.99H57.236a3.562,3.562,0,1,0-7.123,0H46.695a3.542,3.542,0,0,0-3.184,1.99H41.52a5,5,0,0,0-5,4.995V41.62a5,5,0,0,0,5,5H65.83a5,5,0,0,0,5-5V40.091a.237.237,0,0,0-.237-.237H68.214a.237.237,0,0,0-.237.237V41.62a2.15,2.15,0,0,1-2.147,2.147H41.52a2.15,2.15,0,0,1-2.147-2.147V10.546A2.15,2.15,0,0,1,41.52,8.4H43.4a3.542,3.542,0,0,0,3.3,2.246h13.96a3.542,3.542,0,0,0,3.3-2.246H65.83a2.15,2.15,0,0,1,2.147,2.147V21.011A.237.237,0,0,0,68.214,21.249ZM53.675,2.183A1.378,1.378,0,1,1,52.3,3.562,1.38,1.38,0,0,1,53.675,2.183Z" transform="translate(-36.525)"/>
  <g id="Group_492" data-name="Group 492" transform="translate(6.471 14.604)">
    <path id="Path_926" data-name="Path 926" d="M125.01,153.854H105.741a1.044,1.044,0,1,0,0,2.088H125.01a1.044,1.044,0,0,0,0-2.088Z" transform="translate(-104.697 -153.854)"/>
    <path id="Path_927" data-name="Path 927" d="M125.01,194.854H105.741a1.044,1.044,0,1,0,0,2.088H125.01a1.044,1.044,0,0,0,0-2.088Z" transform="translate(-104.697 -190.962)"/>
  </g>
</svg>
