<svg id="group" xmlns="http://www.w3.org/2000/svg" viewBox="0 0 73.416 46.615">
	<defs xmlns="http://www.w3.org/2000/svg">
    <style>
      path{
        fill: #e94d65;
      }
    </style>
  </defs>
  <g id="Group_493" data-name="Group 493" transform="translate(0 0)">
    <path id="Path_928" data-name="Path 928" d="M63.495,112.761a8.382,8.382,0,1,0-9.616,0,14.522,14.522,0,0,0-4.953,2.905,18.792,18.792,0,0,0-6.8-3.7,10.619,10.619,0,1,0-10.982,0,18.949,18.949,0,0,0-6.726,3.661,14.641,14.641,0,0,0-4.9-2.847,8.382,8.382,0,1,0-9.616,0A14.713,14.713,0,0,0,0,126.678v.959a.062.062,0,0,0,.058.058H17.824a19.538,19.538,0,0,0-.16,2.455v.988a7.725,7.725,0,0,0,7.728,7.728H47.908a7.725,7.725,0,0,0,7.728-7.728v-.988a19.537,19.537,0,0,0-.16-2.455H73.358a.062.062,0,0,0,.058-.058v-.959A14.769,14.769,0,0,0,63.495,112.761ZM52.629,105.89a6.057,6.057,0,1,1,6.174,6.058H58.57A6.049,6.049,0,0,1,52.629,105.89Zm-24.317-3.021a8.295,8.295,0,1,1,8.774,8.28h-.959A8.307,8.307,0,0,1,28.312,102.869Zm-19.7,3.021a6.057,6.057,0,1,1,6.174,6.058h-.232A6.058,6.058,0,0,1,8.614,105.89Zm9.616,19.465H2.353a12.412,12.412,0,0,1,12.231-11.084h.174a12.283,12.283,0,0,1,7.917,2.949A19.073,19.073,0,0,0,18.231,125.356Zm35.052,5.782a5.412,5.412,0,0,1-5.4,5.4H25.363a5.412,5.412,0,0,1-5.4-5.4v-.988a16.687,16.687,0,0,1,16.168-16.662c.16.015.334.015.494.015s.334,0,.494-.015a16.687,16.687,0,0,1,16.168,16.662Zm1.729-5.782a19.023,19.023,0,0,0-4.4-8.077,12.342,12.342,0,0,1,7.989-3.007h.174A12.412,12.412,0,0,1,71,125.356Z" transform="translate(0 -92.25)"/>
  </g>
</svg>
