<svg id="quality" xmlns="http://www.w3.org/2000/svg" viewBox="0 0 38.713 46.615">
	<defs xmlns="http://www.w3.org/2000/svg">
    <style>
      path{
        fill: #e94d65;
      }
    </style>
  </defs>
  <path id="Path_929" data-name="Path 929" d="M78.494,41.5,72.323,26.6a.744.744,0,1,0-1.374.569l5.579,13.469L71.439,39.16a.744.744,0,0,0-.859.356l-2.556,4.641L62.038,29.7a15,15,0,1,0-14.867-5.777L39.895,41.5a.744.744,0,0,0,.894,1l6-1.74,3.015,5.475a.744.744,0,0,0,.651.385H50.5a.744.744,0,0,0,.646-.458l5.766-13.92a.744.744,0,0,0-1.374-.569l-5.174,12.49-2.556-4.641a.744.744,0,0,0-.859-.356l-5.089,1.475,6.387-15.42a14.949,14.949,0,0,0,10.946,4.761c.445,0,.886-.021,1.322-.059l6.726,16.239a.744.744,0,0,0,.646.458h.041a.744.744,0,0,0,.651-.385L71.6,40.755l6,1.74a.744.744,0,0,0,.894-1Zm-32.8-26.507a13.5,13.5,0,1,1,13.5,13.5,13.516,13.516,0,0,1-13.5-13.5Z" transform="translate(-39.838 0)"/>
  <path id="Path_930" data-name="Path 930" d="M165.2,66.245a.744.744,0,0,0-.584-.5l-5.005-.84-2.346-4.5a.744.744,0,0,0-1.319,0L153.6,64.9l-5.005.84A.744.744,0,0,0,148.187,67l3.556,3.622-.748,5.02a.744.744,0,0,0,1.067.776L156.6,74.15l4.543,2.263a.744.744,0,0,0,1.067-.775l-.748-5.02L165.023,67A.744.744,0,0,0,165.2,66.245Zm-5.053,3.595a.744.744,0,0,0-.2.631l.592,3.975-3.6-1.791a.743.743,0,0,0-.663,0l-3.6,1.791.592-3.975a.744.744,0,0,0-.2-.631l-2.815-2.868,3.963-.665a.744.744,0,0,0,.537-.39l1.857-3.563,1.857,3.564a.744.744,0,0,0,.537.39l3.963.665-2.815,2.867Z" transform="translate(-137.249 -54.049)"/>
  <path id="Path_931" data-name="Path 931" d="M137.162,42.763a.743.743,0,0,0-.835.64,10.525,10.525,0,1,1,0-2.78.744.744,0,1,0,1.475-.2,12.012,12.012,0,1,0,0,3.171.744.744,0,0,0-.64-.835Z" transform="translate(-106.537 -27.025)"/>
</svg>
