<?xml version="1.0" encoding="UTF-8"?><svg id="Layer_2" xmlns="http://www.w3.org/2000/svg" viewBox="0 0 238.99 238.57"><defs><style>.cls-1{fill:#007c49;}.cls-2{fill:#009c5d;}</style></defs><g id="Layer_1-2"><g id="xwX32c.tif"><path class="cls-2" d="m0,137.93c1.06-.99,1.99-2.2,3.21-2.93,12.42-7.51,24.89-14.96,37.35-22.41,4.3-2.57,7.28-.9,7.32,4.14.04,6.29.01,12.58.01,18.87,0,.84,0,1.68,0,3.05,1.09-.83,1.8-1.35,2.49-1.91,9.65-7.71,19.3-15.42,28.96-23.13.36-.29.75-.55,1.1-.86,1.45-1.27,3.07-1.9,4.91-1,1.83.89,2.37,2.54,2.36,4.46,0,6.44,0,12.89,0,19.33,0,.85,0,1.7,0,3.05.92-.68,1.57-1.12,2.19-1.62,10.02-7.99,20.05-15.98,30.05-24,1.54-1.23,3.11-2.16,5.09-1.28,2.1.93,2.44,2.75,2.42,4.84-.05,7.21-.02,14.41-.02,21.98.74-.47,1.25-.73,1.69-1.08,10.09-8.04,20.16-16.09,30.25-24.13.61-.48,1.21-.99,1.88-1.37,2.42-1.38,5.21-.21,5.83,2.49.24,1.04.27,2.15.28,3.23.02,7.05.01,14.1.01,21.31h8.05c.34-4.32.7-8.62,1-12.93,1.24-17.72,2.46-35.45,3.67-53.17.99-14.55,1.97-29.11,2.92-43.66.26-4,1.64-5.38,5.66-5.39,7.08,0,14.16-.01,21.23,0,3.68,0,5.01,1.36,5.27,4.99,1.17,16.95,2.4,33.9,3.58,50.85.86,12.38,1.65,24.77,2.48,37.16.46,6.89.97,13.78,1.38,20.67.08,1.37.7,1.67,1.91,1.65,2.88-.05,5.76.04,8.63-.03,2.37-.06,4.43.44,5.81,2.55v96.91H0C0,205.02,0,171.48,0,137.93Zm230.87,92.6v-83.32h-2.94c-21,0-42,0-63.01,0-4.3,0-5.69-1.41-5.7-5.75,0-5.12,0-10.25,0-15.37,0-.64-.1-1.28-.17-2.18-1.06.83-1.85,1.43-2.63,2.06-9.84,7.85-19.68,15.7-29.5,23.58-1.56,1.25-3.17,2.03-5.12,1.15-1.99-.9-2.33-2.66-2.32-4.67.05-6.68.02-13.35.01-20.03,0-.64-.09-1.27-.16-2.14-.77.57-1.28.93-1.76,1.32-10.08,8.05-20.17,16.08-30.22,24.16-1.68,1.35-3.37,2.33-5.5,1.31-2.09-1.01-2.24-2.98-2.24-4.98,0-6.37,0-12.73,0-19.1,0-.79-.07-1.58-.12-2.7-.79.6-1.23.92-1.65,1.26-10.14,8.1-20.29,16.18-30.41,24.31-1.61,1.29-3.29,2.23-5.32,1.28-2.03-.96-2.39-2.87-2.38-4.92.02-6.91.01-13.82,0-20.73,0-.73-.08-1.46-.13-2.43-.85.47-1.45.79-2.03,1.14-9.2,5.5-18.37,11.04-27.6,16.47-1.53.9-2.07,1.87-2.06,3.66.06,28.03.04,56.06.04,84.09,0,.82,0,1.65,0,2.49h119.49v-2.73c0-15.68,0-31.37,0-47.05,0-4.49,1.31-5.81,5.82-5.82,9.26,0,18.51,0,27.77,0,5.13,0,6.35,1.2,6.35,6.29,0,15.53,0,31.06,0,46.59v2.8h63.49ZM190.96,31.98c-2.47,35.72-4.93,71.32-7.4,106.99h31.19c-2.48-35.77-4.95-71.38-7.41-106.99h-16.37Zm-55.36,151.14v47.37h23.48v-47.37h-23.48Z"/><path class="cls-2" d="m148.28,8.17c1.74-1.53,3.22-2.76,4.63-4.08,5.72-5.37,10.6-5.15,16.2-.18,5.56,4.93,4.07,5.4,10.02-.28,5.36-5.11,12.47-4.61,16.97,1.28,1.14,1.5,2.08,3.06,4.38,3.44,2.05.33,2.9,2.24,2.52,4.34-.36,2-1.69,3.11-3.73,3.17-3.16.09-5.7-1.24-7.76-3.58-.15-.17-.26-.38-.4-.57-3.51-4.79-3.72-4.81-7.99-.65-.56.54-1.1,1.1-1.7,1.58-5.67,4.47-10.65,4.08-15.93-.96-4.83-4.61-3.94-4.67-8.83.04-5.5,5.31-11.22,5.28-16.77.04-1.75-1.65-3.94-2.88-6.05-4.08-1.82-1.04-2.78-2.82-2.18-4.85.56-1.92,2.6-3.36,4.53-2.61,2.62,1.01,5.12,2.42,7.5,3.93,1.61,1.02,2.91,2.53,4.6,4.03Z"/><path class="cls-2" d="m79.75,198.88c0,3.64.04,7.29-.01,10.93-.05,3.42-1.6,4.94-5.04,4.96-4.66.03-9.32.03-13.98,0-3.43-.02-5.01-1.52-5.04-4.97-.06-7.29-.05-14.58,0-21.86.02-3.45,1.54-5.04,4.93-5.1,4.74-.08,9.48-.09,14.21,0,3.41.06,4.88,1.65,4.92,5.11.04,3.64,0,7.29,0,10.93Zm-15.74-7.81v15.54h7.42v-15.54h-7.42Z"/><path class="cls-2" d="m23.84,198.77c0-3.57-.01-7.13,0-10.7.02-3.62,1.45-5.18,5-5.24,4.66-.07,9.32-.07,13.98,0,3.45.05,5,1.55,5.04,4.98.07,7.36.08,14.73,0,22.1-.04,3.45-1.62,4.85-5.12,4.87-4.66.02-9.32.03-13.98,0-3.33-.03-4.87-1.54-4.91-4.83-.04-3.72-.01-7.44-.01-11.16Zm15.78,7.95v-15.63h-7.71c0,4.92-.03,9.71.05,14.5,0,.38.7,1.06,1.1,1.08,2.15.11,4.31.05,6.56.05Z"/><path class="cls-2" d="m111.55,198.78c0,3.72.02,7.44,0,11.16-.03,3.21-1.5,4.78-4.65,4.82-4.89.06-9.79.06-14.68,0-2.96-.03-4.53-1.48-4.56-4.4-.08-7.67-.08-15.35,0-23.02.03-2.85,1.43-4.37,4.28-4.46,5.12-.15,10.25-.16,15.37,0,2.92.09,4.22,1.73,4.25,4.74.03,3.72,0,7.44,0,11.16Zm-8.13,7.81v-15.51h-7.64v15.51h7.64Z"/><path class="cls-1" d="m64.01,191.07h7.42v15.54h-7.42v-15.54Z"/><path class="cls-1" d="m39.62,206.72c-2.25,0-4.41.06-6.56-.05-.4-.02-1.09-.7-1.1-1.08-.08-4.79-.05-9.58-.05-14.5h7.71v15.63Z"/><path class="cls-1" d="m103.42,206.59h-7.64v-15.51h7.64v15.51Z"/></g></g></svg>