<?xml version="1.0" encoding="UTF-8"?><svg id="Layer_2" xmlns="http://www.w3.org/2000/svg" viewBox="0 0 213.72 213.68"><defs><style>.cls-1{fill:#007c49;}.cls-2{fill:#009c5d;}</style></defs><g id="Layer_1-2"><g id="JCwJZL.tif"><path class="cls-2" d="m32.17,213.68c-5.14-1.11-10.3-2.12-15.4-3.36-4.44-1.08-8.83-2.42-13.23-3.65-2.72-.76-3.96-2.43-3.41-4.56.55-2.18,2.57-3.04,5.4-2.29,6.83,1.83,13.6,3.9,20.5,5.45,9.45,2.12,18.89,1.56,28.25-.95,3.41-.91,6.9-1.49,10.62-2.27-.4-.68-.8-1.43-1.27-2.14-13.34-20.33-26.67-40.66-40.02-60.98-1.83-2.79-2.78-5.72-1.9-9.07.99-3.79,3.3-6.38,7.01-7.61,2.7-.89,5.41-1.78,8.18-2.38,1.84-.4,2.39-1.18,2.38-3.06-.08-15.09-.07-30.18-.03-45.27.01-5.63,3.44-9.91,8.74-10.84,1.68-.29,3.45-.05,5.49-.05,0-.96,0-1.69,0-2.42,0-9.67,0-19.33,0-29,0-6.96,4.26-11.37,11.23-11.45,7.3-.08,14.6-.02,21.91-.02.69,0,1.37,0,2.39,0,0-2.98-.02-5.79.01-8.61.01-1.18,0-2.38.24-3.52.76-3.48,3.45-5.62,7.02-5.63,7.02-.02,14.05-.02,21.07,0,4.31.01,7.33,2.96,7.42,7.31.07,3.4.01,6.79.01,10.45.93,0,1.68,0,2.43,0,7.09,0,14.19.15,21.28-.04,7.99-.21,12.11,5.97,11.91,11.97-.32,9.45-.09,18.91-.09,28.37v2.46c1.14,0,2.09,0,3.05,0,6.65.03,11.16,4.41,11.18,11.06.05,15.02.06,30.04-.03,45.06-.01,1.95.48,2.83,2.43,3.22,2.3.46,4.53,1.28,6.79,1.96,8.42,2.53,11.1,9.94,6.26,17.33-7.04,10.75-14.1,21.5-21.14,32.24-6.32,9.64-12.65,19.29-18.97,28.93-.36.55-.68,1.14-1.08,1.83,7.25,1.38,14.22,2.94,21.26,3.98,8.17,1.21,16.19-.16,24.07-2.45,4.53-1.31,9.11-2.44,13.62-3.81,2.46-.75,4.46-.5,6.01,1.67v2.92c-1.25.77-2.42,1.84-3.78,2.25-5.29,1.6-10.62,3.09-15.99,4.41-4.08,1-8.24,1.69-12.36,2.52h-11.69c-2.85-.51-5.7-1.03-8.55-1.54-5.71-1.03-11.38-2.37-17.13-3.01-10.84-1.19-20.97,3.14-31.49,4.54h-11.69c-2.85-.52-5.69-1.03-8.54-1.55-5.71-1.02-11.38-2.37-17.14-3-10.84-1.18-20.98,3.15-31.5,4.54h-11.69Zm14.18-96.71c.76-.17,1.24-.25,1.69-.38,18.65-5.4,37.3-10.78,55.93-16.24,2.03-.59,3.88-.59,5.89,0,18.36,5.38,36.73,10.7,55.1,16.03.75.22,1.53.33,2.45.53v-2.12c0-14.05,0-28.09,0-42.14,0-3.84-1.13-4.99-4.96-4.99-37.06,0-74.13,0-111.19,0-3.73,0-4.9,1.16-4.9,4.83,0,12.45,0,24.9,0,37.34,0,2.29,0,4.58,0,7.14Zm64.37-8.85c-.09.43-.17.63-.17.83,0,12.24,0,24.47-.05,36.71,0,1.32.71,1.6,1.68,1.93,16.71,5.74,33.43,11.46,50.11,17.27,1.49.52,2.18.2,3-1.05,6.12-9.44,12.31-18.83,18.47-28.24,2.46-3.75,1.74-5.76-2.58-7.02-13.51-3.93-27.03-7.83-40.54-11.74-9.92-2.87-19.83-5.76-29.91-8.69Zm-7.5.11c-.64.12-1.06.16-1.45.28-23.35,6.78-46.7,13.55-70.05,20.35-3.23.94-4,3.2-2.13,6.08,6.34,9.71,12.73,19.38,19.06,29.1.66,1.02,1.19,1.37,2.48.92,16.83-5.84,33.68-11.61,50.53-17.36,1.2-.41,1.59-1,1.57-2.24-.07-4.93-.03-9.87-.03-14.8,0-7.36,0-14.72,0-22.33Zm49.96-47.75c0-.74,0-1.28,0-1.82,0-9.66,0-19.33,0-28.99,0-3.51-1.21-4.67-4.81-4.67-27.67,0-55.34,0-83.01,0-3.68,0-4.8,1.14-4.8,4.89,0,9.52,0,19.05,0,28.57,0,.66,0,1.32,0,2.02h92.62Zm-49.96,146.2c0-2.74,0-4.87,0-7.01,0-2.22-.03-4.45.01-6.67.05-2.6,1.46-4.25,3.58-4.29,2.18-.04,3.65,1.67,3.71,4.38.03,1.46,0,2.92,0,4.38,0,2.9,0,5.79,0,8.97,2.5-.31,4.72-.44,6.87-.87,7.26-1.47,14.39-3.71,21.91-3.69.46,0,1.11-.33,1.36-.71,3.35-5.02,6.65-10.07,10.07-15.28-13.44-4.51-26.68-8.94-40.21-13.48,0,1.87.04,3.46,0,5.04-.07,2.63-1.44,4.16-3.66,4.15-2.21,0-3.56-1.54-3.63-4.18-.04-1.56,0-3.13,0-4.99-13.58,4.54-26.81,8.96-40.2,13.44,3.21,4.91,6.33,9.58,9.35,14.32.75,1.17,1.61,1.59,2.99,1.77,5.28.71,10.54,1.59,15.79,2.48,3.88.66,7.75,1.43,12.08,2.24Zm0-52.03c-16.7,5.75-33.03,11.37-49.49,17.03.73,1.13,1.27,2.01,1.85,2.87,1.09,1.61,1.9,4.07,3.37,4.57,1.55.53,3.77-.74,5.65-1.37,12.37-4.12,24.73-8.28,37.07-12.48.62-.21,1.45-.98,1.48-1.53.15-2.91.07-5.82.07-9.11Zm56.85,17.02c-16.6-5.71-32.91-11.32-49.52-17.03,0,3.34-.05,6.38.05,9.42.01.41.69,1,1.17,1.16,13.92,4.7,27.86,9.36,41.81,13.96.52.17,1.53-.11,1.84-.53,1.58-2.19,3.01-4.48,4.65-6.98ZM96.38,7.21v10.37h20.96V7.21h-20.96Z"/><path class="cls-1" d="m103.22,154.65c0,3.28.08,6.2-.07,9.11-.03.55-.86,1.31-1.48,1.53-12.34,4.2-24.7,8.36-37.07,12.48-1.88.63-4.1,1.89-5.65,1.37-1.47-.5-2.28-2.96-3.37-4.57-.58-.86-1.12-1.74-1.85-2.87,16.46-5.67,32.79-11.29,49.49-17.03Z"/><path class="cls-1" d="m160.07,171.67c-1.64,2.49-3.06,4.79-4.65,6.98-.3.42-1.32.7-1.84.53-13.95-4.6-27.89-9.27-41.81-13.96-.48-.16-1.16-.75-1.17-1.16-.1-3.04-.05-6.07-.05-9.42,16.61,5.72,32.93,11.33,49.52,17.03Z"/><path class="cls-2" d="m121.09,74.74c5.87-.01,10.75,4.83,10.78,10.69.03,5.85-4.81,10.72-10.7,10.76-5.85.04-10.76-4.82-10.79-10.69-.02-5.85,4.85-10.75,10.71-10.76Zm.01,7.24c-1.98.02-3.49,1.61-3.42,3.62.06,1.94,1.52,3.34,3.47,3.33,2.01-.01,3.51-1.57,3.44-3.59-.06-1.91-1.58-3.38-3.49-3.36Z"/><path class="cls-2" d="m92.65,74.74c5.86,0,10.74,4.89,10.73,10.75-.01,5.86-4.91,10.73-10.77,10.7-5.89-.03-10.74-4.89-10.72-10.75.02-5.86,4.9-10.71,10.76-10.7Zm-.12,7.23c-1.99.06-3.46,1.68-3.35,3.7.1,1.93,1.61,3.31,3.56,3.26,2.01-.05,3.44-1.61,3.34-3.66-.09-1.89-1.66-3.35-3.55-3.3Z"/><path class="cls-2" d="m138.95,85.48c0-5.97,4.77-10.76,10.7-10.74,5.83.02,10.6,4.78,10.63,10.61.03,5.99-4.65,10.79-10.61,10.85-5.89.06-10.72-4.77-10.73-10.72Zm7.15-.07c-.04,1.89,1.44,3.45,3.34,3.53,1.98.08,3.67-1.46,3.71-3.4.04-1.84-1.5-3.46-3.37-3.55-1.96-.1-3.65,1.47-3.69,3.42Z"/><path class="cls-2" d="m74.8,85.45c0,5.97-4.79,10.79-10.7,10.75-5.93-.04-10.66-4.84-10.63-10.82.02-5.83,4.78-10.61,10.6-10.64,5.95-.03,10.73,4.74,10.73,10.71Zm-7.14.03c0-1.87-1.52-3.43-3.41-3.5-1.95-.06-3.64,1.56-3.65,3.48,0,1.86,1.54,3.42,3.43,3.47,2.01.05,3.62-1.48,3.62-3.46Z"/><path class="cls-2" d="m106.96,32.08c5.93.04,10.79,4.95,10.68,10.8-.11,5.91-4.97,10.59-10.95,10.54-5.78-.05-10.6-4.92-10.57-10.71.02-5.89,4.9-10.67,10.84-10.63Zm3.36,10.6c-.03-1.94-1.49-3.43-3.4-3.45-1.98-.03-3.52,1.54-3.49,3.57.03,1.91,1.53,3.45,3.4,3.48,1.95.03,3.51-1.59,3.49-3.6Z"/><path class="cls-2" d="m135.23,53.41c-5.85-.03-10.53-4.77-10.55-10.66-.01-5.97,4.74-10.7,10.74-10.68,5.98.02,10.71,4.79,10.67,10.76-.04,5.92-4.85,10.61-10.86,10.58Zm3.66-10.76c-.05-1.94-1.78-3.54-3.7-3.42-1.88.11-3.33,1.69-3.29,3.59.04,1.87,1.62,3.45,3.46,3.46,1.9.01,3.59-1.72,3.53-3.63Z"/><path class="cls-2" d="m78.38,53.41c-5.93,0-10.72-4.81-10.7-10.73.02-5.93,4.8-10.6,10.82-10.6,5.86,0,10.59,4.76,10.57,10.61-.02,6.01-4.72,10.72-10.69,10.72Zm0-7.13c1.83,0,3.44-1.57,3.49-3.43.06-1.98-1.5-3.62-3.46-3.63-1.93-.01-3.59,1.68-3.53,3.6.05,1.84,1.68,3.45,3.5,3.46Z"/><path class="cls-1" d="m121.1,81.98c1.9-.01,3.43,1.45,3.49,3.36.06,2.02-1.44,3.58-3.44,3.59-1.95.01-3.41-1.39-3.47-3.33-.06-2.01,1.45-3.61,3.42-3.62Z"/><path class="cls-1" d="m92.53,81.98c1.89-.06,3.46,1.4,3.55,3.3.09,2.05-1.33,3.61-3.34,3.66-1.95.05-3.46-1.33-3.56-3.26-.11-2.02,1.36-3.64,3.35-3.7Z"/><path class="cls-1" d="m146.1,85.41c.04-1.95,1.73-3.52,3.69-3.42,1.87.09,3.41,1.72,3.37,3.55-.05,1.94-1.73,3.48-3.71,3.4-1.9-.08-3.38-1.63-3.34-3.53Z"/><path class="cls-1" d="m67.66,85.48c0,1.98-1.61,3.51-3.62,3.46-1.89-.05-3.44-1.61-3.43-3.47,0-1.93,1.7-3.55,3.65-3.48,1.89.06,3.41,1.63,3.41,3.5Z"/><path class="cls-1" d="m110.32,42.68c.03,2.01-1.54,3.63-3.49,3.6-1.87-.03-3.37-1.57-3.4-3.48-.03-2.03,1.51-3.6,3.49-3.57,1.91.03,3.37,1.52,3.4,3.45Z"/><path class="cls-1" d="m138.88,42.65c.05,1.91-1.63,3.64-3.53,3.63-1.84-.01-3.42-1.59-3.46-3.46-.04-1.9,1.41-3.48,3.29-3.59,1.92-.11,3.65,1.48,3.7,3.42Z"/><path class="cls-1" d="m78.37,46.28c-1.82,0-3.45-1.61-3.5-3.46-.06-1.92,1.6-3.61,3.53-3.6,1.97.01,3.53,1.65,3.46,3.63-.06,1.86-1.66,3.44-3.49,3.43Z"/></g></g></svg>