<?xml version="1.0" encoding="UTF-8"?><svg id="Layer_2" xmlns="http://www.w3.org/2000/svg" viewBox="0 0 232.6 233.57"><defs><style>.cls-1{fill:#007c49;}.cls-2{fill:#009c5d;}</style></defs><g id="Layer_1-2"><g id="wC3WUy.tif"><path class="cls-2" d="m28.47,233.57c-1.59-.73-3.31-1.26-4.75-2.21-4.02-2.66-5.67-6.6-5.66-11.34.01-4.97,0-9.94,0-15.27-2.14,0-4.04.02-5.94,0-7.57-.08-12.11-4.65-12.12-12.21,0-1.69-.01-3.38,0-5.07.04-4.39,1.95-7.8,5.79-9.86,1.63-.87,2.01-1.85,1.98-3.55-.1-6.51-.2-13.03,0-19.54.53-18.18,9.02-31.36,25.22-39.65,1.07-.55,2.09-1.72,2.54-2.85,6.24-15.55,12.37-31.14,18.54-46.73.24-.6.44-1.21.71-1.79,1.27-2.71,3.81-3.81,6.32-2.77,2.56,1.06,3.71,3.59,2.66,6.35-2.31,6.07-4.74,12.09-7.13,18.13-3.07,7.76-6.14,15.51-9.21,23.26-.29.73-.51,1.48-.82,2.41h139.9c-.33-.94-.61-1.8-.94-2.65-5.3-13.42-10.64-26.83-15.88-40.28-.5-1.27-.76-2.87-.47-4.16.48-2.14,2.17-3.37,4.41-3.44,2.36-.08,3.95,1.2,4.8,3.34,2.32,5.81,4.59,11.64,6.89,17.45,4.13,10.44,8.24,20.88,12.47,31.29.43,1.06,1.38,2.17,2.38,2.7,15.95,8.37,24.18,21.56,24.66,39.52.18,6.59.07,13.19,0,19.78-.02,1.45.28,2.32,1.72,2.97,3.2,1.44,4.75,4.34,6.06,7.39v11.1c-2.94,8.9-10.24,9.39-18.07,8.78,0,5.43,0,10.39,0,15.36,0,4.61-1.55,8.52-5.48,11.15-1.5,1-3.27,1.58-4.92,2.35h-35.23c-7.84-2.5-10.86-8.03-10.29-16.02.25-3.52.05-7.07.03-10.6,0-.68-.12-1.36-.18-2.03h-84.52c0,1.02,0,1.89,0,2.75-.02,4.66.08,9.32-.08,13.97-.18,4.93-2.76,8.42-7.1,10.64-.98.5-2.04.86-3.06,1.28H28.47Zm186.64-57.58c0-7.86.38-15.44-.07-22.96-1.14-18.98-15.6-32.4-34.55-32.4-43.02-.02-86.03-.02-129.05,0-15.72.01-29.36,10.49-32.91,25.69-2.25,9.64-.88,19.53-1,29.32,0,.12.19.24.26.32h56.85c0-1.03,0-1.89,0-2.76.03-4.1-.13-8.21.14-12.3.35-5.34,3.33-9,8.32-10.73,1.99-.69,4.26-.8,6.4-.81,17.37-.06,34.74.26,52.1-.14,10.69-.25,17.25,4.96,16.4,16.46-.25,3.41-.04,6.86-.04,10.32h57.15Zm-98.79,19.02c33.86,0,67.72,0,101.58,0,5.09,0,5.12.52,5.07-5.15-.04-4.06-.03-4.08-4.01-4.08-67.88,0-135.76,0-203.64,0-5.91,0-5.71-.5-5.67,5.56.03,3.6.08,3.67,3.65,3.67,34.34,0,68.69,0,103.03,0Zm31.89-18.99c0-4.27,0-8.35,0-12.43,0-3.85-.58-4.43-4.49-4.43-17.92,0-35.84,0-53.76,0-.96,0-2.07-.27-2.86.1-1.02.49-2.5,1.47-2.54,2.3-.24,4.78-.12,9.57-.12,14.46h63.77Zm-83.99,28.9H27.93c0,5.53-.05,10.9.03,16.27.03,1.91,1.47,2.63,3.13,2.64,9.96.05,19.91.05,29.87,0,1.79,0,3.2-.86,3.22-2.84.07-5.29.02-10.59.02-16.07Zm104.18-.06c0,5.53-.04,10.82.02,16.11.02,1.99,1.41,2.85,3.2,2.86,9.96.04,19.91.05,29.87,0,2.07-.01,3.27-1.11,3.22-3.34-.04-1.93,0-3.85,0-5.78,0-3.25,0-6.51,0-9.85h-36.31Z"/><path class="cls-2" d="m142.04,86.54c-.93-.21-2-.2-2.77-.67-4.07-2.53-7.03,1.24-10.53,1.81-.39.06-.65,1.2-.9,1.86-1.47,3.83-4.13,5.76-8.23,5.88-1.85.05-3.7.05-5.55,0-4.21-.1-7.02-2.03-8.33-6.03-.56-1.71-1.36-2.82-3.16-3.11-.23-.04-.45-.18-.66-.3-3.05-1.66-5.99-2.97-9.52-.75-1.12.7-3.36.52-4.65-.13-4.38-2.22-7.87-5.53-9.73-10.19-.92-2.32-.14-4.62,1.14-6.66.9-1.43.75-2.63.2-4.22-1.03-2.97-2.52-4.76-5.71-5.93-5.6-2.05-5.06-7.3-5.05-12.1.01-4.02,1.04-7.92,5.13-8.86,5.01-1.15,5-5.44,6.81-8.63.28-.49-.22-1.52-.54-2.22-2.32-5.07-1.84-7.82,2.1-11.65.92-.9,1.84-1.8,2.78-2.68,3.63-3.44,6.73-3.96,11.14-1.63,1.37.73,2.48.89,3.76,0,.45-.32,1-.54,1.54-.67,2.53-.59,4-2.01,4.86-4.6,1.08-3.28,3.83-4.84,7.26-5.01,2.01-.1,4.02-.04,6.03-.02,4.22.04,6.94,1.91,8.36,5.95.48,1.35,1.1,2.19,2.58,2.43.93.15,1.87.51,2.71.97,2.74,1.5,5.33,2.15,8.49.71,2.61-1.18,5.2.11,7.26,2,1.6,1.46,3.12,3.03,4.58,4.63,2.52,2.76,3.03,5.84,1.6,9.37-.41,1.01-.11,2.35.03,3.52.07.61.55,1.15.77,1.75,1.01,2.85,1.97,5.45,5.41,6.62,5.26,1.8,5.21,17.87.04,19.58-5.48,1.82-4.9,7.4-7.57,10.91-.26.34.24,1.32.5,1.96,1.38,3.48.92,6.63-1.71,9.34-1.57,1.61-3.12,3.3-4.93,4.6-1.56,1.11-3.48,1.72-5.25,2.55-.09-.13-.18-.25-.27-.38Zm3.77-63.49c-2.79-3.31-2.83-3.39-6.25-1.6-1.65.86-2.85.85-4.58-.1-3.06-1.69-6.3-3.38-9.67-4.08-3.38-.71-5.2-2.14-5.74-5.44-.25-1.53-1.05-2.19-2.8-2.19-1.75,0-2.45.68-2.82,2.19-.21.85-.62,1.66-.79,2.52-.33,1.65-1.34,2.21-2.92,2.65-2.76.78-5.68,1.58-8,3.15-3.03,2.06-5.58,2.18-8.39.02-1.41-1.08-2.52-.97-3.94.34-1.43,1.32-.87,2.29-.21,3.52.45.85.75,1.79,1.27,2.59.91,1.4.71,2.53-.18,3.95-1.31,2.09-2.87,4.32-3.24,6.65-.74,4.77-3.17,7.27-7.8,8.11-.56.1-1.22,1.49-1.23,2.28,0,.83.55,1.88,1.19,2.42.68.57,1.75.79,2.69.95,2.52.41,3.89,1.65,4.21,4.33.21,1.71.71,3.61,1.71,4.95,3.16,4.21,2.71,8.12-.32,12.06-.07.09,0,.29,0,.45q2.55,2.87,6.07,1.19c.51-.24,1.08-.39,1.52-.71,1.22-.89,2.2-.56,3.46.14,2.92,1.63,5.87,3.46,9.05,4.32,3.34.9,5.39,2.33,5.84,5.81.21,1.61,1.15,2.13,2.83,2.13,1.71,0,2.6-.57,2.81-2.16.44-3.33,2.34-4.74,5.62-5.28,2.55-.42,5.2-1.36,7.37-2.74,2.74-1.75,5.06-1.88,7.56.04,1.26.97,2.15.61,3.28-.43,1.25-1.14,1.51-2.09.52-3.45-1.72-2.35-1.39-4.34.31-6.84,1.9-2.79,3.36-6.09,4.16-9.37.7-2.87,1.8-4.58,4.74-4.96,1.59-.21,1.89-1.19,2.01-2.69.16-2.03-1.03-2.58-2.5-2.83-2.44-.41-3.62-1.65-4.07-4.18-.43-2.41-1.18-4.93-2.48-6.97-2.36-3.71-4.25-7.16-.31-10.75Z"/><path class="cls-1" d="m148.2,176.03h-63.77c0-4.88-.12-9.68.12-14.46.04-.83,1.52-1.81,2.54-2.3.79-.38,1.89-.1,2.86-.1,17.92,0,35.84,0,53.76,0,3.91,0,4.49.58,4.49,4.43,0,4.08,0,8.16,0,12.43Z"/><path class="cls-1" d="m145.81,23.05c-3.93,3.59-2.05,7.04.31,10.75,1.3,2.04,2.05,4.56,2.48,6.97.45,2.53,1.62,3.76,4.07,4.18,1.47.25,2.66.8,2.5,2.83-.12,1.5-.42,2.49-2.01,2.69-2.94.38-4.03,2.09-4.74,4.96-.8,3.28-2.26,6.58-4.16,9.37-1.7,2.5-2.03,4.49-.31,6.84.99,1.36.73,2.31-.52,3.45-1.13,1.03-2.02,1.39-3.28.43-2.51-1.92-4.83-1.79-7.56-.04-2.17,1.39-4.82,2.33-7.37,2.74-3.28.54-5.18,1.95-5.62,5.28-.21,1.59-1.1,2.17-2.81,2.16-1.68,0-2.62-.52-2.83-2.13-.45-3.49-2.5-4.92-5.84-5.81-3.18-.85-6.13-2.69-9.05-4.32-1.26-.7-2.24-1.03-3.46-.14-.44.32-1.02.47-1.52.71q-3.52,1.68-6.07-1.19c0-.16-.06-.35,0-.45,3.03-3.95,3.48-7.85.32-12.06-1-1.34-1.51-3.24-1.71-4.95-.32-2.67-1.7-3.92-4.21-4.33-.94-.15-2-.37-2.69-.95-.65-.55-1.2-1.6-1.19-2.42,0-.79.67-2.18,1.23-2.28,4.63-.84,7.06-3.34,7.8-8.11.36-2.34,1.93-4.56,3.24-6.65.88-1.41,1.09-2.54.18-3.95-.52-.8-.82-1.74-1.27-2.59-.66-1.23-1.22-2.2.21-3.52,1.42-1.31,2.52-1.42,3.94-.34,2.81,2.16,5.36,2.05,8.39-.02,2.32-1.58,5.24-2.38,8-3.15,1.58-.45,2.59-1.01,2.92-2.65.17-.86.59-1.67.79-2.52.36-1.51,1.07-2.2,2.82-2.19,1.75,0,2.55.66,2.8,2.19.54,3.3,2.37,4.74,5.74,5.44,3.37.7,6.61,2.39,9.67,4.08,1.72.95,2.92.96,4.58.1,3.42-1.79,3.47-1.7,6.25,1.6Zm-29.01,46.98c12.91-.01,23.31-9.94,23.33-22.28.02-12.3-10.36-22.32-23.26-22.43-12.84-.12-23.54,10.14-23.45,22.48.08,12.37,10.47,22.25,23.38,22.24Z"/><path class="cls-2" d="m29.26,148.94c-.26-9.1,7.17-16.84,16.37-17.05,9-.2,16.76,7.34,17,16.52.23,8.9-7.18,16.55-16.33,16.87-9.09.31-16.77-7.05-17.03-16.34Zm16.51,6.53c3.89.03,6.94-2.91,6.99-6.76.05-3.92-2.84-6.9-6.75-6.95-3.92-.05-6.93,2.86-6.98,6.73-.05,3.9,2.9,6.95,6.73,6.98Z"/><path class="cls-2" d="m187.31,165.28c-9.17,0-16.74-7.51-16.81-16.66-.08-9.03,7.68-16.78,16.75-16.74,9.14.04,16.73,7.71,16.64,16.82-.09,9.13-7.55,16.59-16.58,16.59Zm0-23.51c-3.93,0-6.92,2.9-6.96,6.77-.04,3.92,2.87,6.9,6.76,6.93,3.92.03,6.9-2.88,6.94-6.76.04-3.93-2.88-6.93-6.75-6.94Z"/><path class="cls-2" d="m116.8,70.03c-12.91.01-23.3-9.87-23.38-22.24-.08-12.34,10.61-22.59,23.45-22.48,12.89.12,23.28,10.14,23.26,22.43-.02,12.35-10.42,22.27-23.33,22.28Zm-13.6-22.43c-.04,7.08,5.95,12.74,13.51,12.76,7.48.02,13.57-5.51,13.64-12.39.08-7.16-5.78-12.76-13.39-12.82-7.69-.06-13.72,5.39-13.76,12.45Z"/><path class="cls-1" d="m45.76,155.46c-3.84-.03-6.78-3.08-6.73-6.98.05-3.87,3.06-6.77,6.98-6.73,3.9.05,6.8,3.03,6.75,6.95-.05,3.84-3.1,6.78-6.99,6.76Z"/><path class="cls-1" d="m187.32,141.76c3.87,0,6.79,3,6.75,6.94-.04,3.88-3.02,6.79-6.94,6.76-3.89-.03-6.8-3.01-6.76-6.93.04-3.87,3.03-6.78,6.96-6.77Z"/><path class="cls-1" d="m103.2,47.59c.04-7.06,6.07-12.51,13.76-12.45,7.62.06,13.47,5.66,13.39,12.82-.07,6.87-6.17,12.41-13.64,12.39-7.56-.02-13.55-5.68-13.51-12.76Z"/></g></g></svg>