<?xml version="1.0" encoding="UTF-8"?><svg id="Layer_2" xmlns="http://www.w3.org/2000/svg" viewBox="0 0 188.67 188.59"><defs><style>.cls-1{fill:#007c49;}.cls-2{fill:#009c5d;}</style></defs><g id="Layer_1-2"><g id="x8ASzK.tif"><path class="cls-2" d="m188.67,170.33c-.7,2.08-1.17,4.27-2.15,6.21-3.92,7.73-10.3,11.98-18.98,12-48.79.08-97.59.06-146.38.03-10.93,0-20.26-8.62-21.07-19.28-.85-11.25,6.61-21.05,17.5-22.91,1.49-.25,3.02-.33,4.53-.35,4.74-.04,9.48-.02,14.44-.02,0-.82,0-1.49,0-2.17,0-10.01-.03-20.02.04-30.03,0-1.27.23-2.73.87-3.78,4.08-6.59,6.16-13.58,5.22-21.41-.28-2.34,1.05-3.44,3.46-3.44,11.85-.01,23.7-.01,35.55,0,2.41,0,3.47,1.07,3.51,3.45,0,.06,0,.13,0,.19-1.01,7.6,1.02,14.44,4.99,20.89.74,1.2,1.04,2.85,1.05,4.3.09,9.88.05,19.77.05,29.65v2.21h6.1c0-.67,0-1.34,0-2.01,0-10.14-.02-20.27.03-30.41,0-1.09.46-2.18.74-3.26.06-.24.2-.46.34-.68,4.08-6.31,5.88-13.13,5.03-20.68-.29-2.6.98-3.65,3.64-3.65,11.72,0,23.45,0,35.17,0,2.73,0,3.97,1.04,3.67,3.81-.78,7.33.84,14.01,4.86,20.15,1.08,1.64,1.32,3.46,1.31,5.42-.06,10.39-.03,20.77-.03,31.45.93,0,1.79,0,2.64,0,4.18,0,8.36-.02,12.55,0,10.44.05,18.97,7.14,20.96,17.4.06.29.24.56.36.84,0,2.03,0,4.06,0,6.08Zm-94.52,12.17c12.92,0,25.85,0,38.77,0,11.4,0,22.81.07,34.21-.02,10.64-.09,17.85-9.95,14.67-19.89-2.08-6.5-7.97-10.52-15.49-10.52-47.96,0-95.92,0-143.88,0-.51,0-1.01,0-1.52.02-10.28.48-17.16,10.31-13.98,19.98,2.1,6.38,7.93,10.42,15.17,10.43,24.01.01,48.02,0,72.04,0Zm9.44-66.84v30.22h30.19v-30.22h-30.19Zm-30.65,30.26v-30.19h-30.2v30.19h30.2Zm12.31,0v-2.2c0-9.12-.14-18.25.07-27.37.08-3.44-1.69-5.9-3.08-9-1.69,3.21-3.26,5.9-3.17,9.46.24,8.99.08,17.99.08,26.99v2.12h6.1Zm54.75-.06h6.1c0-10.28-.05-20.42.03-30.55.03-3.07-1.89-5.15-3.01-7.87-2.2,3.45-3.43,6.71-3.19,10.61.3,4.99.07,10.01.07,15.01v12.8Zm-.08-54.48h-30.2v5.87h30.2v-5.87Zm-91.11,5.83h30.2v-5.86h-30.2v5.86Zm56.63,12.3c9.79,0,19.23,0,28.67-.03.42,0,1.03-.28,1.22-.61.93-1.7,1.75-3.46,2.61-5.21-.28-.13-.39-.22-.5-.22-9.32-.01-18.63-.03-27.95,0-.46,0-1.14.32-1.35.7-.92,1.64-1.71,3.36-2.7,5.37Zm-60.85,0c9.79,0,19.23,0,28.67-.03.42,0,1.03-.28,1.22-.61.93-1.7,1.75-3.46,2.61-5.21-.28-.13-.39-.22-.5-.22-9.32-.01-18.63-.03-27.95,0-.46,0-1.14.32-1.35.7-.92,1.64-1.71,3.36-2.7,5.37Z"/><path class="cls-2" d="m188.67,16.35c-1,1.53-2.41,2.17-4.2,1.89-2.62-.41-4.41.68-6.23,2.57-8.66,8.99-17.43,17.87-26.28,26.68-7.08,7.06-18.58,5.02-22.76-3.9-.24-.51-.56-1.05-.6-1.59-.15-2.23-1.38-2.86-3.4-2.5-.43.08-.9.07-1.33,0-1.89-.33-3.18.19-4.02,2.1-.43.97-1.39,1.92-2.35,2.38-1.65.79-2.08,1.91-1.91,3.59.13,1.25.03,2.53.03,3.56,3.69,2.43,7.26,4.78,10.83,7.14.26.17.49.41.68.65,1.13,1.4,1.01,8.89-.23,10.22-1.61,1.71-3.3,3.33-4.96,4.99-.31.31-.64.59-1.06.97-1.32-1.48-2.61-2.93-4.17-4.69,1.18-1.1,2.66-2.44,4.09-3.85,1.62-1.6,1.38-3.75-.51-5.02-1.16-.77-2.32-1.55-3.48-2.32-3.05-2.03-5.3-2.04-8.32-.04-1.11.74-2.21,1.47-3.32,2.21-2.24,1.5-2.46,3.49-.53,5.36,1.36,1.32,2.8,2.54,4.52,4.09-1.54,1.38-2.72,2.44-3.89,3.49-.28.25-.56.48-.87.75-2.12-2.09-4.25-4.07-6.23-6.19-.49-.53-.74-1.49-.73-2.25.11-9.04-1.31-6.42,5.86-11.36,1.77-1.22,3.64-2.29,5.43-3.48.3-.2.6-.64.63-.99.11-1.58.2-3.17.11-4.75-.03-.46-.57-1.04-1.03-1.31-3.71-2.11-5.68-5.68-5.1-9.38.65-4.1,3.52-7.15,7.42-7.89,3.79-.72,7.41,1.08,9.75,4.78.29.45.9.97,1.38.99,2.14.11,4.29.05,6.51.05,2.13-6.42,8.14-9.74,12.16-14.93H48.17c3.89,5.07,9.79,8.39,12.1,14.76,2.2,0,4.42.07,6.63-.05.52-.03,1.15-.63,1.47-1.14,2.21-3.47,6.01-5.23,9.74-4.42,4.03.87,6.8,3.99,7.29,8.21.41,3.53-1.53,7.06-5,8.86-.91.47-1.29.97-1.25,2.02.13,3.29.12,6.59.25,9.88.02.5.38,1.16.79,1.44,3.14,2.13,6.4,4.09,9.47,6.31.83.6,1.12,1.95,1.65,2.96.03.05,0,.13,0,.19,1.43,6.48-2.56,10.19-7.05,13.69-1.33-1.35-2.69-2.73-4.33-4.39,1.48-1.37,2.99-2.71,4.43-4.12,1.53-1.5,1.27-3.71-.5-4.9-1.16-.78-2.32-1.55-3.48-2.32-3.17-2.11-5.36-2.12-8.47-.04-1.11.74-2.21,1.47-3.32,2.21-2.14,1.42-2.34,3.42-.53,5.25,1.25,1.26,2.51,2.51,3.75,3.77.08.08.11.22.22.44-1.39,1.29-2.81,2.6-4.28,3.95-1.99-1.94-4.25-3.96-6.26-6.21-.57-.63-.58-1.9-.57-2.87.08-7.81-1.11-5.79,5.46-10.24,2.13-1.44,4.31-2.82,6.69-4.37,0-3.55.02-7.47-.03-11.39,0-.38-.42-.8-.73-1.13-1.44-1.54-2.91-3.06-4.37-4.58-.25-.26-.51-.69-.78-.7-1.96-.06-3.93-.08-5.89.02-.28.01-.64.69-.76,1.12-3.11,11.51-15.81,14.93-24.22,6.47-9.03-9.08-18.01-18.2-26.95-27.35-1.07-1.09-2.12-1.66-3.63-1.48-.81.1-1.65.04-2.47.01-2.04-.07-3.16-1.16-3.18-3.2C.02,11.11-.09,7.17.14,3.25.2,2.14,1.31,1.08,1.94,0c62.24,0,124.48,0,186.73,0,0,5.45,0,10.9,0,16.35ZM6.21,12.04h176.23v-5.87H6.21v5.87Zm166,6.2c-7.62,0-14.7-.02-21.78.03-.55,0-1.21.35-1.61.75-4.22,4.2-8.45,8.39-12.56,12.69-3.24,3.39-3.1,8.54.16,11.61,3.21,3.03,8.11,2.87,11.44-.42,2.48-2.45,4.91-4.94,7.36-7.42,5.55-5.63,11.09-11.26,17-17.25Zm-155.71,0c8.32,8.44,16.26,16.51,24.24,24.55,3.44,3.47,8.52,3.6,11.71.39,3.22-3.24,3.13-8.27-.27-11.76-4.02-4.13-8.08-8.22-12.16-12.29-.41-.41-1.04-.84-1.57-.85-7.14-.06-14.28-.04-21.95-.04Zm62.74,18.35c.04-1.69-1.26-3.1-2.89-3.12-1.63-.03-2.98,1.35-2.98,3.03,0,1.61,1.22,2.93,2.79,3.02,1.61.09,3.03-1.26,3.08-2.93Zm36.11-.08c0-1.68-1.34-3.06-2.97-3.05-1.63.02-2.94,1.42-2.9,3.11.03,1.59,1.32,2.91,2.88,2.95,1.63.04,2.99-1.33,3-3.01Z"/><path class="cls-1" d="m139.91,91.37v5.87h-30.2v-5.87h30.2Z"/><path class="cls-1" d="m48.8,97.2v-5.86h30.2v5.86h-30.2Z"/><path class="cls-1" d="m79.23,36.59c-.04,1.67-1.46,3.02-3.08,2.93-1.58-.09-2.79-1.41-2.79-3.02,0-1.69,1.35-3.06,2.98-3.03,1.63.03,2.93,1.44,2.89,3.12Z"/><path class="cls-1" d="m115.34,36.51c0,1.68-1.37,3.05-3,3.01-1.56-.04-2.84-1.36-2.88-2.95-.04-1.69,1.28-3.1,2.9-3.11,1.63-.02,2.97,1.36,2.97,3.05Z"/><path class="cls-2" d="m94.36,176.41c-24.34,0-48.67,0-73.01,0-4.49,0-8.23-3.13-9.04-7.45-.79-4.22,1.56-8.56,5.62-10.11,1.09-.42,2.33-.64,3.51-.64,48.61-.03,97.22-.03,145.83-.02,5.23,0,9.21,3.95,9.23,9.06.01,5.21-3.98,9.16-9.31,9.17-24.27.01-48.55,0-72.82,0Zm-54.59-6.08v-6.08c-6.13,0-12.27-.04-18.41.03-1.78.02-3.06,1.44-3.04,3.03.01,1.59,1.29,2.98,3.08,3,6.13.06,12.27.02,18.37.02Zm109.18,0c6.08,0,12.22.04,18.35-.02,1.79-.02,3.08-1.4,3.1-2.98.02-1.65-1.32-3.01-3.22-3.05-3.23-.07-6.46-.02-9.69-.02-2.89,0-5.79,0-8.54,0v6.09Zm-91.27-.1h12.52v-5.85h-12.52v5.85Zm30.42-5.9v5.85h12.52v-5.85h-12.52Zm30.42,0v5.89h12.52v-5.89h-12.52Zm-69.85-.07c-1.57.04-3.01,1.52-2.97,3.08.04,1.58,1.51,3,3.08,2.97,1.57-.03,3.01-1.52,2.97-3.08-.03-1.57-1.53-3.01-3.08-2.98Zm63.93,3.07c.03-1.56-1.42-3.05-2.98-3.07-1.56-.03-3.04,1.42-3.07,2.99-.02,1.57,1.41,3.04,2.98,3.07,1.56.03,3.04-1.41,3.07-2.98Zm27.37-3.07c-1.57.01-3.02,1.48-3.01,3.05.01,1.57,1.49,3.02,3.05,3.01,1.57-.02,3.02-1.49,3.01-3.05-.02-1.57-1.48-3.02-3.05-3.01Zm-57.8,3.03c0-1.56-1.46-3.03-3.02-3.04-1.56,0-3.03,1.46-3.03,3.02,0,1.57,1.45,3.03,3.02,3.04,1.56,0,3.03-1.45,3.03-3.02Z"/><path class="cls-1" d="m48.66,164.26c1.56-.04,3.05,1.41,3.08,2.98.03,1.56-1.4,3.05-2.97,3.08-1.57.03-3.04-1.39-3.08-2.97-.04-1.56,1.4-3.05,2.97-3.08Z"/><path class="cls-1" d="m112.59,167.33c-.03,1.57-1.51,3.02-3.07,2.98-1.58-.03-3.01-1.5-2.98-3.07.02-1.57,1.51-3.01,3.07-2.99,1.57.03,3.01,1.51,2.98,3.07Z"/><path class="cls-1" d="m139.97,164.26c1.57-.01,3.03,1.43,3.05,3.01.02,1.56-1.43,3.03-3.01,3.05-1.56.02-3.04-1.44-3.05-3.01-.01-1.56,1.44-3.04,3.01-3.05Z"/><path class="cls-1" d="m82.17,167.3c0,1.57-1.47,3.03-3.03,3.02-1.57,0-3.02-1.47-3.02-3.04,0-1.56,1.47-3.03,3.03-3.02,1.56,0,3.02,1.48,3.02,3.04Z"/></g></g></svg>