<?xml version="1.0" encoding="UTF-8"?><svg id="Layer_2" xmlns="http://www.w3.org/2000/svg" viewBox="0 0 192.23 192.23"><defs><style>.cls-1{fill:#009c5d;}</style></defs><g id="Layer_1-2"><g id="hTJx3y.tif"><path class="cls-1" d="m57.82,0C83.35,0,108.88,0,134.41,0c.34.13.66.32,1.01.38,13.46,2.3,23.35,13.97,23.38,27.64.01,6.13,0,12.26,0,18.39,0,.66,0,1.31,0,2.03,1.92,0,3.55,0,5.17,0,15.74.03,28.22,12.47,28.24,28.19.02,15.01,0,30.03,0,45.04,0,1.06,0,2.13-.12,3.18-1.97,15.49-15.19,25.45-28.75,24.95-1.47-.05-2.95,0-4.53,0,0,.93,0,1.61,0,2.29,0,7.69.02,15.39,0,23.08-.03,9.61-7.39,17.04-16.96,17.04-30.46.02-60.93.02-91.39,0-9.59,0-17-7.4-17.03-16.97-.02-7.76,0-15.51,0-23.27,0-.67,0-1.34,0-2.18-1.87,0-3.54,0-5.21,0-12.84-.03-23.89-8.47-27.28-20.83C.61,127.78.31,126.59,0,125.4c0-17.52,0-35.04,0-52.56.11-.21.29-.41.33-.64,2.74-14.49,13.87-23.75,28.57-23.76,1.47,0,2.95,0,4.52,0,0-6.94,0-13.61,0-20.29.02-12.79,8.48-23.85,20.83-27.22C55.44.6,56.63.31,57.82,0Zm-24.48,119.76c-1.34,0-2.46.04-3.59,0-2.96-.12-5.28-2.52-5.34-5.47-.07-3.5,2.43-5.77,6.36-5.77,43.55,0,87.1,0,130.65,0,.31,0,.63,0,.94,0,3.07.11,5.43,2.5,5.45,5.55.03,3.14-2.34,5.6-5.5,5.69-1.11.03-2.22,0-3.4,0v18.79c1.47,0,2.84,0,4.2,0,10.54-.03,17.83-7.27,17.85-17.78.02-14.45.03-28.91,0-43.36-.02-10.4-7.32-17.7-17.73-17.7-44.74-.01-89.48-.01-134.22,0-10.42,0-17.74,7.29-17.75,17.68-.03,14.52.03,29.03-.02,43.55-.03,10.77,8.49,19.52,22.09,17.36v-18.53Zm11.33.04c0,.78,0,1.39,0,2,0,17.46,0,34.92,0,52.37,0,4.6,2.19,6.8,6.76,6.8,29.79,0,59.57,0,89.36,0,4.57,0,6.76-2.2,6.76-6.8,0-17.46,0-34.92,0-52.37v-2H44.67Zm102.88-71.44c0-6.65.03-13.09,0-19.54-.05-10.27-7.37-17.55-17.68-17.56-22.53-.02-45.05-.02-67.58,0-10.29.01-17.58,7.33-17.62,17.62-.02,5.94,0,11.89,0,17.83,0,.54.07,1.08.11,1.64h102.77Z"/><path class="cls-1" d="m39.11,83.72c-3,0-5.99.03-8.99,0-3.3-.04-5.72-2.45-5.7-5.65.01-3.19,2.44-5.57,5.77-5.58,5.93-.02,11.86-.03,17.8,0,3.31.02,5.72,2.44,5.71,5.65-.01,3.2-2.43,5.56-5.77,5.59-2.93.03-5.87,0-8.8,0Z"/><path class="cls-1" d="m95.98,143.79c-4.87,0-9.75.01-14.62,0-3.46-.01-5.91-2.38-5.89-5.66.01-3.26,2.47-5.58,5.96-5.58,9.81-.01,19.62-.01,29.42,0,3.47,0,5.91,2.38,5.89,5.65-.02,3.27-2.46,5.58-5.96,5.59-4.94.02-9.87,0-14.81,0Z"/><path class="cls-1" d="m96.26,156.57c4.81,0,9.62,0,14.43,0,3.62,0,6.09,2.33,6.06,5.68-.03,3.26-2.47,5.56-5.99,5.56-9.75.01-19.49.01-29.24,0-3.61,0-6.08-2.34-6.06-5.68.02-3.25,2.48-5.55,5.99-5.56,4.94-.01,9.87,0,14.81,0Z"/></g></g></svg>