<?xml version="1.0" encoding="UTF-8"?><svg id="Layer_2" xmlns="http://www.w3.org/2000/svg" viewBox="0 0 186.15 186.1"><defs><style>.cls-1{fill:#007c49;}.cls-2{fill:#009c5d;}</style></defs><g id="Layer_1-2"><g id="_15eWyL.tif"><path class="cls-2" d="m33.16,186.1c-2.22-1.68-2.47-2.39-1.66-5.11,3.79-12.8,12.8-19.64,25.52-22.08,2.6-.5,5.29-.48,7.92-.84.7-.1,1.6-.55,1.94-1.12,4.4-7.25,11.56-10.52,20.11-9.03.94.16,1.39-.09,1.82-.94,7.03-14.08,18.82-21.11,34.1-22.84,1.2-.14,2.63.35,3.73.95,3.57,1.96,7.13,3.89,11.25,4.35,6.28.71,11.31-2.21,13.72-8.04.7-1.7,1.69-2.93,3.2-3.98,6.35-4.37,8.01-11.08,4.44-18.37-.97-1.98-.97-3.65-.26-5.67,4.57-12.95,3.56-25.55-2.73-37.73-1.54-2.98-1.44-4.12.77-6.67,2.41-2.78,5.56-4.26,9.07-4.92,1.68-.32,2.67-1.05,3.53-2.55,2.58-4.49,6.39-7.69,11.12-9.79,2.7-1.2,3.62-.95,5.4,1.39v148.27c-.86,2.29-2.43,3.87-4.72,4.72H33.16ZM179.88,39.41c-2.78,2-4.76,4.25-5.82,7.15-.83,2.25-2.23,3.19-4.61,3.27-2.78.1-5.25,1.19-7.42,3.08.26.57.48,1.06.71,1.55,6,12.91,6.89,26.16,2.6,39.72-.39,1.24-.38,2.25.1,3.44,3.95,9.75,1.5,18.56-6.76,24.81-.67.51-1.2,1.33-1.57,2.11-3.75,8.06-11.5,12.3-20.25,11.07-4.26-.6-8.08-2.35-11.88-4.26-1.16-.58-2.68-.97-3.92-.78-13.09,2.06-22.43,9.1-27.6,21.37-1.2,2.85-2.92,3.63-5.61,2.62-6.52-2.45-13.42.67-16.28,7.05-1.12,2.49-1.62,2.76-4.47,2.69-7.67-.2-14.95,1.1-21.25,5.84-3.29,2.48-5.7,5.67-7.25,9.63h141.28V39.41Z"/><path class="cls-1" d="m181.43,186.1c2.29-.86,3.87-2.43,4.72-4.72v4.72h-4.72Z"/><path class="cls-2" d="m105.56,19.87c.87,1.59,1.69,3.2,2.62,4.75.34.57.87,1.12,1.44,1.46,10.88,6.41,20.76,14.03,28.79,23.85,6.14,7.51,10.74,15.83,12.25,25.52.54,3.5.58,7.11.5,10.67-.05,2.48-1.61,4.26-4,5.11-2.32.83-4.47.39-6.2-1.34-1.63-1.62-3.08-3.42-4.63-5.11-11.71-12.74-25.26-23.08-40.66-30.96-.68-.35-1.63-.23-2.46-.19-1.64.07-3.27.23-5.32.39-1.99,3.97-4.22,8.45-6.46,12.93-13.57,27.13-27.15,54.24-40.69,81.38-1.92,3.85-4.67,6.63-8.94,7.56-5.02,1.08-9.28-.46-12.44-4.44-3.27-4.13-3.58-8.77-1.26-13.46,5.63-11.38,11.34-22.73,17.02-34.08,9.96-19.9,19.91-39.8,29.87-59.7.29-.59.57-1.19.36-1.57-.91-1.63-1.8-3.28-2.75-4.89-.25-.42-.65-.82-1.09-1.04-12.5-6.13-25.6-10.47-39.34-12.68-5.3-.85-10.68-1.3-16.02-1.87-2.91-.31-5.1-1.88-5.87-4.39-.79-2.55.09-4.98,2.42-6.9C11.56,3.57,21.87.39,33.21.04c14.49-.45,28.14,3.09,41.39,8.59,1.11.46,2.05.65,3.25.14.95-.4,2.23-.57,3.17-.26,1.56.52,2-.21,2.53-1.37,1.86-4.11,4.99-6.33,9.6-5.97,1.29.1,2.58.6,3.78,1.11,1.72.74,3.38,1.62,5.03,2.5,4.84,2.58,6.53,7.7,4.21,12.67-.38.81-.78,1.62-1.18,2.43.19,0,.37-.01.56-.02Zm-33.95,25.28c-.35.64-.66,1.14-.93,1.67-15.49,30.97-30.98,61.94-46.47,92.91-.27.54-.57,1.07-.78,1.63-1.14,2.99.12,6.28,2.95,7.71,2.86,1.45,6.19.57,7.96-2.15.39-.6.69-1.27,1.02-1.92,10.8-21.6,21.6-43.2,32.41-64.79,4.91-9.82,9.84-19.64,14.81-29.57-3.68-1.84-7.28-3.65-10.97-5.5Zm26.29,2.72c18.15,9.32,33.69,21.61,47.08,37.18.05-.9.1-1.37.1-1.83.02-7.3-1.97-14.08-5.52-20.4-5.81-10.35-14.23-18.27-23.72-25.14-3.06-2.22-6.28-4.22-9.61-6.44-2.85,5.7-5.54,11.08-8.32,16.63ZM7.08,15.66c20.15,1.54,39.3,6.69,57.51,15.52,2.81-5.62,5.49-11,8.28-16.58-3.39-1.22-6.58-2.51-9.85-3.53-12.4-3.89-24.98-6.19-38.02-3.78-6.64,1.23-12.68,3.8-17.92,8.37Zm94.92,10.02c-7.46-3.73-14.73-7.37-22.12-11.06-3.71,7.42-7.35,14.69-11.07,22.12,7.44,3.72,14.74,7.37,22.13,11.06,3.73-7.46,7.34-14.68,11.06-22.12Zm-2.75-8.38c.54-1.06,1.04-1.89,1.39-2.77.67-1.67.2-3.16-1.37-4.03-1.9-1.05-3.85-1.99-5.82-2.9-1.49-.69-2.75-.14-3.62,1.12-.63.92-1.04,1.98-1.6,3.06,3.73,1.87,7.27,3.65,11.01,5.52Z"/><path class="cls-2" d="m113.52,118.21c-5.78-.4-9.68-3.87-10.85-9.92-1.69-8.79,7.92-17.47,16.51-14.78,1.5.47,3.18,1.58,3.97,2.88,1.54,2.55,2.84,5.36,3.65,8.22,1.42,5.04-.8,9.46-5.67,11.49-2.41,1-5.06,1.42-7.61,2.11Zm-5.27-12.74c.52,2.46,1.13,4.5,3.11,5.7,1.87,1.13,6.69.08,8.67-1.8,1.97-1.87.47-3.8-.08-5.7-.08-.29-.24-.55-.37-.83-1.9-4.09-3.22-4.51-7.24-2.24-.73.41-1.54.84-2.04,1.48-.8,1.03-1.38,2.24-2.05,3.38Z"/><path class="cls-1" d="m102.01,25.68c-3.72,7.44-7.33,14.66-11.06,22.12-7.39-3.69-14.69-7.34-22.13-11.06,3.72-7.43,7.36-14.7,11.07-22.12,7.39,3.69,14.66,7.33,22.12,11.06Z"/><path class="cls-1" d="m99.26,17.3c-3.74-1.87-7.28-3.65-11.01-5.52.55-1.08.97-2.14,1.6-3.06.87-1.26,2.14-1.81,3.62-1.12,1.97.91,3.92,1.86,5.82,2.9,1.57.87,2.04,2.36,1.37,4.03-.36.88-.85,1.71-1.39,2.77Z"/><path class="cls-1" d="m108.26,105.46c.67-1.14,1.25-2.35,2.05-3.38.5-.64,1.31-1.07,2.04-1.48,4.02-2.28,5.34-1.86,7.24,2.24.13.27.28.54.37.83.55,1.89,2.05,3.82.08,5.7-1.97,1.88-6.8,2.94-8.67,1.8-1.97-1.2-2.58-3.24-3.11-5.7Z"/><path class="cls-2" d="m100.05,162.71c-.01-3.74,1.54-6.06,4.08-6.97,2.1-.75,4.24-1.4,6.39-1.99,3.24-.88,6.3.65,7.46,3.78.8,2.14,1.46,4.34,2.05,6.55.83,3.13-.72,6.18-3.76,7.32-2.25.85-4.57,1.55-6.9,2.16-2.33.61-5.22-.36-6.27-2.58-1.41-2.96-2.29-6.18-3.04-8.29Zm12.1-2.92c-2.01.63-3.82,1.2-5.82,1.83.63,1.99,1.21,3.84,1.84,5.83,2.05-.66,3.89-1.25,5.81-1.86-.64-2.01-1.19-3.78-1.83-5.8Z"/><path class="cls-2" d="m152.92,168.28c-2.09-.74-5.3-1.62-8.27-3.02-2.27-1.07-3.19-3.97-2.53-6.43.61-2.27,1.28-4.53,2.09-6.73,1.12-3.06,4.13-4.62,7.29-3.8,2.21.57,4.41,1.25,6.55,2.04,3.14,1.16,4.7,4.25,3.82,7.45-.58,2.09-1.22,4.17-1.93,6.21-.94,2.69-3.19,4.28-7.02,4.27Zm-2.86-13.92c-.63,2-1.21,3.86-1.84,5.84,2.04.63,3.9,1.2,5.85,1.8.62-2.03,1.18-3.85,1.78-5.81-2.01-.64-3.82-1.21-5.79-1.83Z"/><path class="cls-2" d="m167.21,129.99c1.01.44,1.78.58,2.29,1.03,1.26,1.12,2.49,2.3,3.58,3.58,1.09,1.29.9,2.95-.25,4.09-1.13,1.12-2.84,1.27-4.1.19-1.28-1.1-2.61-2.23-3.53-3.61-.53-.8-.67-2.25-.32-3.15.35-.89,1.54-1.46,2.34-2.14Z"/><path class="cls-2" d="m84.09,167.23c-.46,1.01-.63,1.76-1.07,2.27-1.03,1.19-2.13,2.32-3.31,3.36-1.36,1.2-3.04,1.1-4.25-.11-1.16-1.16-1.26-2.97-.12-4.26,1.04-1.17,2.07-2.46,3.37-3.27.87-.55,2.35-.72,3.3-.37.87.32,1.4,1.56,2.07,2.38Z"/><path class="cls-2" d="m133.43,147.37c0,.6.05,1.21,0,1.81-.18,1.7-1.5,2.83-3.21,2.78-1.64-.05-2.81-1.14-2.93-2.84-.08-1.08-.06-2.18-.02-3.26.07-1.85,1.34-3.17,3.02-3.2,1.75-.03,3.08,1.33,3.16,3.26.02.48,0,.97,0,1.45,0,0,0,0-.01,0Z"/><path class="cls-1" d="m112.15,159.78c.64,2.02,1.2,3.79,1.83,5.8-1.92.61-3.76,1.21-5.81,1.86-.63-1.99-1.21-3.84-1.84-5.83,2-.63,3.81-1.2,5.82-1.83Z"/><path class="cls-1" d="m150.06,154.36c1.97.62,3.79,1.2,5.79,1.83-.6,1.96-1.16,3.78-1.78,5.81-1.95-.6-3.81-1.17-5.85-1.8.62-1.98,1.21-3.83,1.84-5.84Z"/></g></g></svg>