<?xml version="1.0" encoding="UTF-8"?><svg id="Layer_2" xmlns="http://www.w3.org/2000/svg" viewBox="0 0 201.18 201.78"><defs><style>.cls-1{fill:#007c49;}.cls-2{fill:#009c5d;}</style></defs><g id="Layer_1-2"><g id="hVZPdi.tif"><path class="cls-2" d="m201.18,157.23v44.55H2.01C.32,200.99,0,199.58,0,197.84c.04-13.03,0-26.05.04-39.08,0-1.74.1-3.51.48-5.2,2.04-9.07,9.6-15.05,19.07-15.06,26.36-.03,52.72-.01,79.08-.01,3.57,0,3.77-.2,3.77-3.87,0-18.7,0-37.41,0-56.11,0-1.02-.02-2.04-.09-3.05-.51-7.4-6.6-13.35-14-13.5-5.95-.12-11.91,0-17.86-.06-1.83-.02-2.61.77-2.7,2.59-.4,7.48-.86,14.96-1.32,22.44-.3,4.88-3.92,9.09-8.66,9.9-1.56.26-3.18.14-4.78.16-2.82.03-3.1.29-3.1,3.15,0,7.64.01,15.28,0,22.92,0,2.65-1.04,4.2-3.15,4.9-3.63,1.21-6.61-.99-6.66-5.06-.07-6.77,0-13.54-.03-20.3-.02-5.56.81-5.5-5.34-5.5-6.75,0-10.92-4.1-11.32-10.89-.42-7.11-.97-14.22-1.37-21.34-.12-2.05-.84-2.88-3.03-2.93-7.08-.15-12.48-5.64-12.56-12.72-.09-8-.1-16.01,0-24.01.09-7.08,5.62-12.46,12.69-12.53,3.41-.04,6.83-.05,10.24,0,1.99.03,2.98-.64,3.26-2.82.58-4.59,3.21-7.68,7.62-9.15C41.15.4,42.07.23,42.98,0c1.31,0,2.61,0,3.92,0,.63.15,1.25.34,1.88.46,4.18.8,7.81,4.46,8.53,8.62q.62,3.57,4.27,3.57c31.72,0,63.45,0,95.17,0,1.74,0,3.5-.03,5.21.23,13.01,1.99,20.97,12.91,21.35,23.25.06,1.65.91,2.54,2.58,2.61.65.03,1.3.08,1.96.13,7.85.59,12.82,5.68,13.05,13.55.12,4,.04,8,.03,12-.04,8.36.04,16.73-.19,25.09-.13,4.87-2.8,8.41-7.23,10.27-2.29.96-4.87,1.32-7.36,1.65-1.97.26-2.82,1.04-2.81,3.05.04,10.4.04,20.81,0,31.21,0,1.89.67,2.83,2.61,3.32,7.71,1.93,12.59,6.83,14.53,14.6.3,1.19.46,2.41.68,3.62ZM89.57,22.21c-23.1,0-46.19,0-69.29,0-3.3,0-4.3.98-4.31,4.25-.01,6.91,0,13.83,0,20.74,0,3.96.86,4.79,4.89,4.79,22.08,0,44.16-.03,66.24.02,8.56.02,15.43,3.54,20.46,10.51,3.42,4.73,4.52,10.12,4.51,15.86-.04,18.78-.02,37.56-.01,56.34,0,3.55.22,3.77,3.66,3.77,18.16,0,36.31,0,54.47,0,3.33,0,3.56-.23,3.56-3.62,0-31.88-.16-63.76.09-95.64.08-9.63-7-17.27-17.17-17.12-22.36.33-44.74.1-67.11.1Zm11,169.54c29.12,0,58.23,0,87.35,0,3.17,0,3.45-.28,3.46-3.51,0-9.82.02-19.65,0-29.47-.02-6.82-3.91-10.71-10.66-10.71-53.51,0-107.03,0-160.54,0-6.5,0-10.32,3.8-10.33,10.26,0,9.97,0,19.94,0,29.91,0,3.41.12,3.53,3.6,3.53,29.04,0,58.09,0,87.13,0ZM44.94,62.51c-3.55,0-7.11.01-10.66,0-1.5,0-2.68.43-2.57,2.17.42,7.04.87,14.07,1.42,21.1.04.52.95,1.38,1.47,1.38,6.75.09,13.49.12,20.24-.03.72-.02,1.98-1.19,2.05-1.91.59-6.66.95-13.33,1.43-20,.15-2.05-.83-2.73-2.7-2.71-3.55.03-7.11,0-10.66,0Zm138.46,7.5c0,6.25-.01,12.49,0,18.74,0,2.61.55,3.13,3.03,3.07,3.87-.1,4.99-1.24,4.99-5.17.01-11.04,0-22.08,0-33.12,0-.87-.04-1.76-.25-2.59-.5-1.91-3.04-2.97-5.85-2.56-2.04.3-1.91,1.87-1.91,3.33,0,6.1,0,12.2,0,18.3ZM42.22,12.51h5.41c.53-2.48-.86-2.76-2.69-2.74-1.8.02-3.24.27-2.72,2.74Z"/><path class="cls-2" d="m151.93,0c.58.26,1.18.49,1.74.78,1.89.98,2.98,3.06,2.52,5.08-.47,2.08-1.73,3.72-3.93,3.77-5.57.14-11.14.13-16.71-.02-2.1-.06-3.46-1.79-3.67-3.91-.24-2.43.8-4.38,2.76-5.14.53-.21,1.07-.37,1.61-.56,5.23,0,10.46,0,15.69,0Z"/><path class="cls-1" d="m183.4,70.01c0-6.1,0-12.2,0-18.3,0-1.46-.14-3.03,1.91-3.33,2.82-.42,5.35.65,5.85,2.56.22.83.25,1.72.25,2.59.02,11.04.02,22.08,0,33.12,0,3.94-1.13,5.08-4.99,5.17-2.48.06-3.02-.46-3.03-3.07-.02-6.25,0-12.49,0-18.74Z"/><path class="cls-1" d="m42.22,12.51c-.52-2.47.92-2.72,2.72-2.74,1.83-.02,3.22.26,2.69,2.74h-5.41Z"/><path class="cls-2" d="m126.96,69.82c.24-9.73,8.1-17.26,17.77-17.01,9.28.23,16.82,8.13,16.68,17.46-.15,9.57-8.03,17.21-17.57,17.02-9.44-.18-17.12-8.13-16.89-17.47Zm9.72.25c-.03,4.11,3.53,7.69,7.61,7.64,4.06-.04,7.46-3.45,7.5-7.53.05-4.09-3.56-7.71-7.61-7.66-4.05.06-7.47,3.49-7.5,7.54Z"/><path class="cls-1" d="m136.68,70.07c.03-4.04,3.45-7.48,7.5-7.54,4.05-.06,7.66,3.57,7.61,7.66-.05,4.07-3.45,7.48-7.5,7.53-4.08.04-7.64-3.53-7.61-7.64Z"/></g></g></svg>