<?xml version="1.0" encoding="UTF-8"?><svg id="Layer_2" xmlns="http://www.w3.org/2000/svg" viewBox="0 0 226.64 226.57"><defs><style>.cls-1{fill:#007c49;}.cls-2{fill:#009c5d;}</style></defs><g id="Layer_1-2"><g id="p2gNJD.tif"><path class="cls-2" d="m2.87,226.57c-1.55-1.23-1.99-2.81-1.98-4.78.07-14.34.04-28.68.04-43.02,0-3.88.9-4.77,4.75-4.77,2.13,0,4.26,0,6.66,0,0-2.69-.04-5.13.01-7.58.06-2.78,1.17-3.87,3.96-3.89,3.51-.03,7.01-.04,10.52,0,2.4.03,3.66,1.28,3.72,3.69.06,2.46.01,4.93.01,7.59h23.52c0-2.26-.02-4.61,0-6.96.03-3.15,1.19-4.3,4.32-4.32,3.35-.01,6.69-.03,10.04,0,2.64.02,3.8,1.11,3.88,3.74.08,2.46.02,4.91.02,7.73,2.46,0,4.73,0,7.01,0,3.36.01,4.37,1.02,4.38,4.43.02,7.96,0,15.91,0,24.26,1.93,0,3.72,0,5.51,0,5.39,0,5.6.19,6.14,5.64h14.59c0-6.1,0-12.13,0-18.16,0-4.09.95-5.05,5.05-5.06,15.14,0,30.28,0,45.42,0,.94,0,1.89,0,3.01,0v-41.35c-1.03,1.69-1.84,2.89-2.51,4.16-1.06,2.01-2.67,2.66-4.9,2.65-19.6-.05-39.2-.03-58.8-.03-17.77,0-35.54.04-53.3-.07-1.49,0-3.35-.65-4.36-1.67-1.44-1.47-.28-3.24.65-4.78,21.42-35.76,42.85-71.51,64.21-107.31,1.26-2.1,2.76-2.92,5.2-2.92,37.37.06,74.74.04,112.11.04,1.68,0,3.39-.14,4.41,1.65,1.06,1.87.07,3.33-.85,4.85-11.16,18.63-22.34,37.26-33.43,55.93-.76,1.28-1.2,2.96-1.22,4.45-.09,12.59-.06,25.17-.05,37.76,0,2.05-.03,4-2.26,5.1-.35.17-.59.93-.59,1.41-.03,17.2-.02,34.4-.02,51.95,3.59,0,7.07,0,10.55,0,3.59,0,4.57.95,4.62,4.48.03,2.22,0,4.44,0,6.99,3.43,0,6.65,0,9.88,0,3.21.01,4.25,1.06,4.28,4.29.02,3.03-.1,6.06.04,9.08.09,1.98-.44,3.55-1.97,4.79h-78.89c-1.49-1.15-2.09-2.61-2.01-4.53.13-3.02.02-6.05.04-9.08.02-3.57.98-4.54,4.49-4.55,3.16,0,6.32,0,9.63,0,0-2.47-.02-4.62,0-6.76.03-3.71,1.03-4.71,4.66-4.71,3.48,0,6.95,0,10.4,0v-4.78h-46.82c0,6.44.01,12.71,0,18.99,0,3.03-1.13,4.22-4.15,4.26-4.22.06-8.44.02-12.67.02-1.48,0-2.96,0-4.39,0-.66,5.13-.98,5.41-5.89,5.41-1.89,0-3.77,0-4.83,0-1.2,2.31-2.09,4.03-2.98,5.74H2.87Zm73.96-6.79v-38.92H7.77v38.92h69.07Zm103.86-22.97v-52.79h-10.02v52.79h10.02Zm23.43-134.24c-7.95,0-15.42-.01-22.89,0-2.7,0-5.88-.77-7.95.4-2.06,1.16-3.04,4.29-4.44,6.59-1.59,2.61-3.11,5.26-4.87,8.24,10.34,0,20.19.01,30.03-.04.51,0,1.22-.43,1.49-.87,2.82-4.59,5.56-9.23,8.62-14.33Zm-79.43,80.78c.39.24.52.38.64.38,9.63.02,19.26.05,28.89.02.56,0,1.37-.26,1.63-.67,2.9-4.7,5.72-9.46,8.76-14.54-1.22,0-1.99,0-2.76,0-7.72,0-15.45.27-23.15-.11-3.96-.19-6.22,1.01-7.9,4.56-1.72,3.61-4.04,6.92-6.1,10.36Zm92.58-102.77h-2.76c-8.2,0-16.41.15-24.6-.08-2.88-.08-4.42.82-5.72,3.31-2.08,3.98-4.54,7.75-6.85,11.62.4.21.53.34.66.34,9.63.02,19.27.05,28.9,0,.65,0,1.56-.5,1.9-1.05,2.79-4.53,5.48-9.12,8.47-14.15Zm-26.31,43.98c-9.03,0-17.62.2-26.2-.09-3.61-.12-5.81.8-7.42,4.16-1.79,3.75-4.18,7.2-6.54,11.17,10.36,0,20.2.02,30.05-.05.56,0,1.33-.56,1.65-1.07,2.78-4.53,5.48-9.11,8.46-14.11Zm-13.18,21.99c-10.32,0-20.09-.03-29.86.06-.67,0-1.57.68-1.97,1.29-1.8,2.8-3.46,5.7-5.17,8.56-.99,1.66-1.97,3.34-3.14,5.32,10.29,0,20.06.02,29.83-.04.58,0,1.41-.43,1.7-.91,2.82-4.57,5.56-9.2,8.6-14.29Zm-77.05,0c-10.05,0-19.53-.03-29,.06-.66,0-1.54.7-1.93,1.32-2.57,4.12-5.03,8.29-7.51,12.47-.22.37-.28.82-.46,1.39,9.61,0,19.01.01,28.4-.03.61,0,1.5-.31,1.79-.77,2.88-4.64,5.66-9.34,8.72-14.44Zm11.96-6.75c10.03,0,19.51.03,28.98-.07.71,0,1.65-.81,2.08-1.49,2.45-3.91,4.78-7.89,7.13-11.85.3-.5.48-1.07.81-1.82-9.77,0-19.25-.01-28.72.03-.54,0-1.31.32-1.57.74-2.87,4.65-5.65,9.35-8.72,14.47Zm-13.16,21.99h2.88c7.65,0,15.3-.2,22.93.09,3.34.13,5.19-.9,6.67-3.85,1.94-3.86,4.38-7.47,6.78-11.48-10,0-19.55-.01-29.09.03-.52,0-1.26.37-1.52.8-2.82,4.6-5.57,9.25-8.64,14.4Zm-11.98,6.75c-1.22,0-1.99,0-2.76,0-7.09,0-14.2.36-21.26-.13-4.72-.33-7.47,1.14-9.38,5.4-1.51,3.35-3.71,6.4-5.61,9.59.4.21.53.34.66.34,9.32.02,18.64.03,27.95,0,.56,0,1.39-.24,1.64-.64,2.9-4.71,5.72-9.47,8.76-14.57Zm37.82.43c-.35-.23-.47-.37-.59-.37-9.4-.03-18.79-.07-28.19,0-.65,0-1.53.73-1.92,1.36-2.45,3.91-4.79,7.88-7.15,11.85-.33.56-.56,1.17-.94,1.97,9.77,0,19.17.01,28.56-.03.61,0,1.49-.32,1.78-.78,2.87-4.63,5.65-9.33,8.44-14Zm-11.46-44.41c-7.47,0-14.47-.01-21.47,0-2.86,0-6.25-.86-8.44.37-2.18,1.23-3.18,4.59-4.67,7.03-1.51,2.48-2.99,4.97-4.71,7.83,10.08,0,19.62.01,29.16-.04.51,0,1.23-.44,1.5-.88,2.83-4.6,5.58-9.24,8.63-14.31Zm13.15-21.99c-10.06,0-19.53-.03-29,.06-.66,0-1.55.71-1.93,1.33-2.52,4.05-4.94,8.16-7.37,12.27-.26.43-.37.95-.62,1.58,9.64,0,19.03.01,28.43-.03.61,0,1.51-.3,1.79-.76,2.88-4.64,5.65-9.33,8.71-14.45Zm11.96-6.75c9.99,0,19.39.03,28.78-.06.74,0,1.75-.69,2.16-1.35,2.62-4.18,5.11-8.43,7.62-12.67.17-.29.2-.66.35-1.16-9.69,0-19.16-.01-28.63.03-.54,0-1.31.32-1.57.74-2.87,4.65-5.65,9.35-8.71,14.46Zm-13.15,21.99c10,0,19.4.02,28.79-.04.61,0,1.49-.34,1.78-.81,2.88-4.64,5.65-9.34,8.47-14.03-.34-.19-.46-.31-.58-.32-9.4-.02-18.8-.04-28.2,0-.54,0-1.32.3-1.58.72-2.85,4.65-5.62,9.35-8.69,14.49Zm14.35-37.23c-9.94,0-19.42-.03-28.89.06-.72,0-1.68.76-2.1,1.43-2.41,3.84-4.7,7.75-7.01,11.65-.34.57-.6,1.18-1.06,2.08,9.92,0,19.46.01,28.99-.04.51,0,1.21-.47,1.49-.92,2.82-4.59,5.56-9.23,8.58-14.27Zm70.01,179.19v-4.51h-69.1v4.51h69.1Zm-26.67-108.88c-.14-.04-.28-.08-.41-.13-5.15,8.61-10.3,17.23-15.63,26.15h16.05v-26.02Zm12.44,92.87h-40.53v4.51h40.53v-4.51ZM19.29,169.33v4.49h4.4v-4.49h-4.4Zm46.16.06h-4.44v4.43h4.44v-4.43Zm18.49,40.07v4.56h4.4v-4.56h-4.4Z"/><path class="cls-2" d="m0,33.45c1.66-2.32,4.13-2.01,6.47-1.87,1.73.1,2.28-.45,2.8-2.22,1.05-3.62,2.71-7.05,4.43-11.36-.67-.56-2.02-1.55-3.18-2.73-1.71-1.75-1.73-3.61-.24-5.06,1.48-1.44,3.29-1.38,5.07.34,1.14,1.1,2.11,2.37,2.79,3.15,4.69-1.95,8.82-3.68,13.43-5.6,0-1.14-.04-2.86.01-4.58C31.64,1.33,32.97-.02,34.93,0c1.96.02,3.21,1.37,3.31,3.58.07,1.66-.44,3.71.36,4.86.7,1,2.88.93,4.36,1.45,1.42.5,2.83,1.07,4.17,1.74,1.27.64,2.45,1.46,4.26,2.55,1.02-1.2,2.05-2.62,3.29-3.83,1.65-1.61,3.44-1.62,4.88-.27,1.51,1.42,1.52,3.32-.13,5.06-1.15,1.21-2.47,2.25-3.14,2.85,1.66,4.6,3.06,8.6,4.58,12.54.18.47.99.92,1.55.97,1.42.14,2.87-.04,4.29.08,1.94.17,3.05,1.34,3.06,3.29,0,1.96-1.2,3.54-3.03,3.24-4.75-.8-6.43,1.34-7.22,5.69-.45,2.47-2.21,4.7-3.74,7.75,1,.84,2.43,1.86,3.64,3.09,1.67,1.71,1.65,3.63.15,5.05-1.43,1.35-3.22,1.32-4.89-.26-1.21-1.14-2.26-2.45-2.91-3.16-4.54,1.64-8.53,3.04-12.48,4.56-.47.18-.94.98-1,1.53-.15,1.34,0,2.7-.06,4.05-.09,2.01-1.43,3.33-3.29,3.35-1.88.02-3.26-1.27-3.35-3.27-.08-1.74-.02-3.49-.02-4.87-4.4-1.8-8.54-3.51-13.53-5.55-.54.64-1.53,1.98-2.69,3.13-1.76,1.73-3.59,1.79-5.07.35-1.49-1.45-1.45-3.3.24-5.06,1.1-1.15,2.35-2.14,3-2.73-1.64-4.55-3.01-8.55-4.59-12.47-.23-.56-1.43-.97-2.21-1.02-2.4-.16-4.98.46-6.71-1.95v-2.87Zm54.5,1.48c.03-10.61-8.78-19.55-19.37-19.65-10.82-.1-19.83,8.83-19.84,19.67,0,10.57,8.88,19.48,19.49,19.53,10.72.05,19.68-8.83,19.71-19.55Z"/><path class="cls-1" d="m210.25,219.77h-69.1v-4.51h69.1v4.51Z"/><path class="cls-1" d="m183.58,110.89v26.02h-16.05c5.33-8.92,10.48-17.53,15.63-26.15.14.04.28.08.41.13Z"/><path class="cls-1" d="m196.02,203.77v4.51h-40.53v-4.51h40.53Z"/><path class="cls-1" d="m19.29,169.33h4.4v4.49h-4.4v-4.49Z"/><path class="cls-1" d="m65.45,169.39v4.43h-4.44v-4.43h4.44Z"/><path class="cls-1" d="m83.94,209.46h4.4v4.56h-4.4v-4.56Z"/><path class="cls-2" d="m43.11,196.82c7.17.46,7.64,1.21,5.32,7.89-.88,2.55-1.72,5.12-2.63,7.66-.89,2.47-2.51,3.46-4.46,2.81-2.09-.7-2.8-2.5-1.95-5.08.69-2.1,1.44-4.18,2.23-6.48-1.26,0-2.29.05-3.32,0-2.51-.14-3.97-2.04-3.2-4.44,1.25-3.93,2.64-7.82,4.09-11.69.72-1.91,2.27-2.7,4.23-1.99,1.92.69,2.68,2.19,2.05,4.19-.73,2.34-1.54,4.66-2.37,7.15Z"/><path class="cls-2" d="m12.41,202.91c0-1.9-.04-3.81.01-5.71.06-2.25,1.29-3.56,3.26-3.59,1.94-.03,3.37,1.34,3.4,3.48.06,3.89.06,7.78,0,11.67-.03,2.14-1.47,3.5-3.41,3.47-1.97-.03-3.19-1.35-3.25-3.6-.05-1.9-.01-3.81-.01-5.71Z"/></g></g></svg>