<?xml version="1.0" encoding="UTF-8"?><svg id="Layer_2" xmlns="http://www.w3.org/2000/svg" viewBox="0 0 232.5 230.47"><defs><style>.cls-1{fill:#007c49;}.cls-2{fill:#009c5d;}</style></defs><g id="Layer_1-2"><g id="phADmA.tif"><path class="cls-2" d="m31.43,0h118.75c2.05,1.36,2.72,3.26,2.65,5.7-.13,4.49-.04,8.98-.04,13.47,0,2.72,0,5.44,0,8.44,1.21,0,2.1,0,3,0,10.48,0,20.95,0,31.43,0,4.12,0,5.41,1.28,5.41,5.33.01,12.39,0,24.78,0,37.17,0,.88,0,1.76,0,2.61,1.48.26,2.62.47,3.76.67,16.46,2.95,29.97,17.46,31.58,34.19.47,4.87.28,9.79.49,14.69.03.78.36,1.74.89,2.26.9.88,2.08,1.48,3.14,2.2v15.47c-1.05.73-2.16,1.39-3.12,2.23-.46.41-.9,1.14-.91,1.73-.05,14.99-.05,29.98,0,44.97,0,.59.44,1.32.91,1.73.96.84,2.07,1.5,3.12,2.23v15.47c-.67.57-1.27,1.49-2.04,1.66-2.15.46-2.08,1.91-2.05,3.55.06,3.16.04,6.32.01,9.48-.03,3.79-1.49,5.23-5.33,5.23-22.95,0-45.89,0-68.84,0-3.99,0-5.35-1.37-5.38-5.43-.03-3.41.07-6.82-.07-10.22-.03-.77-.66-1.86-1.31-2.18-1.88-.92-2.77-2.29-2.77-4.32,0-3.66,0-7.32,0-10.97,0-2.02.81-3.47,2.73-4.32.57-.25,1.31-.92,1.34-1.43.13-2.8.06-5.6.06-8.52h-24.08c0,1.07,0,1.96,0,2.86,0,13.05,0,26.1,0,39.16,0,4.1-1.28,5.38-5.33,5.39-11.31,0-22.61,0-33.92,0-4.75,0-5.92-1.15-5.92-5.85,0-12.89,0-25.77,0-38.66,0-.96-.09-1.91-.14-2.92h-24.12v2.82c0,12.89,0,25.77,0,38.66,0,4.73-1.19,5.95-5.83,5.95-11.06,0-22.11,0-33.17,0-5.19,0-6.29-1.1-6.29-6.27,0-40.57,0-81.14,0-121.71,0-1.04,0-2.09,0-3.28-2.02,0-3.68.04-5.33,0-3.2-.09-4.69-1.59-4.7-4.79-.02-7.81-.02-15.63,0-23.44,0-3.42,1.37-4.81,4.83-4.88,2.63-.05,5.27-.01,8.17-.01v-10.94q0-9.44,9.32-9.44h6.28c0-1.43,0-2.42,0-3.41,0-12.14.04-24.28-.04-36.41-.02-2.53.66-4.51,2.85-5.87Zm5.47,45.69c3.49,0,6.72-.02,9.95,0,4.28.03,5.5,1.25,5.51,5.48,0,4.88,0,9.76,0,14.9,3,0,5.72-.06,8.45.02,3.17.09,4.57,1.49,4.58,4.62.04,7.98.04,15.96,0,23.94-.01,2.94-1.5,4.43-4.43,4.54-1.8.07-3.6.01-5.47.01v53.79h23.91v-53.78c-1.78,0-3.35.02-4.93,0-3.48-.06-5.03-1.57-5.05-5.03-.03-7.65-.02-15.3,0-22.94.01-3.67,1.45-5.09,5.16-5.15,2.55-.04,5.1,0,7.94,0,0-5.11-.01-9.91,0-14.71.02-4.4,1.25-5.64,5.63-5.67,3.3-.02,6.6,0,9.78,0,.18-.5.28-.65.28-.81.02-3.82.03-7.65.04-11.47.01-4.71,1.13-5.81,5.93-5.81,12.47,0,24.94,0,37.41,0,.97,0,1.94,0,2.95,0V8.26H36.9v37.43Zm147.57,26.98v-36.69h-78.05v9.71c2.16,0,4.14,0,6.12,0q9.3,0,9.3,9.16c0,3.64,0,7.27,0,11.22,2.85,0,5.41-.03,7.96,0,3.73.05,5.2,1.44,5.22,5.1.04,7.65.05,15.3,0,22.95-.02,3.63-1.55,5.04-5.26,5.08-1.62.02-3.23,0-4.83,0v53.82h23.94c0-2.28-.06-4.42.02-6.56.05-1.26-.56-1.7-1.54-2.42-1.18-.87-2.39-2.46-2.51-3.84-.34-3.79-.29-7.65-.02-11.46.09-1.29,1.01-3.2,2.03-3.61,1.98-.79,2.04-1.98,2.03-3.64,0-6.72-.51-13.5,1.56-20.04,5.28-16.64,16.88-25.88,34.01-28.8Zm35.66,72.05h-62.88v47.78h62.88v-47.78Zm-.27-20.44c0-5.92.77-11.68-.15-17.16-2.65-15.88-14.56-25.32-31.2-26.05-6.55-.28-12.26,1.6-17.53,5.1-11.57,7.69-17.03,23.16-13.56,38.1h62.43Zm-201.57,28.74h28.84v-53.66h-28.84v53.66Zm69.63-53.72v53.7h28.68v-53.7h-28.68ZM18.48,174.54h98.12v-13.27H18.48v13.27Zm-.19,47.69h28.77c.1-.42.21-.66.21-.89.01-12.2,0-24.41.06-36.61,0-1.7-.81-1.86-2.15-1.85-8.39.03-16.77.01-25.16.03-.55,0-1.09.16-1.73.26v39.07Zm98.31.09v-39.23h-28.67v39.23h28.67ZM8.06,90.92h49.17v-16.49H8.06v16.49Zm69.66-16.53v16.56h48.98v-16.56h-48.98Zm79.47,147.92h62.94v-9.27h-62.94v9.27Zm-8.53-61.03h-23.71v13.25h23.71v-13.25ZM44.18,65.93v-11.91h-22.94v11.91h22.94Zm69.51-11.96h-22.79v11.94h22.79v-11.94Zm39.23,82.2h71.47v-3.34h-71.47v3.34Zm0,68.32h71.46v-3.33h-71.46v3.33Z"/><path class="cls-1" d="m44.18,65.93h-22.94v-11.91h22.94v11.91Z"/><path class="cls-1" d="m113.68,53.97v11.94h-22.79v-11.94h22.79Z"/><path class="cls-1" d="m152.91,136.17v-3.34h71.47v3.34h-71.47Z"/><path class="cls-1" d="m152.92,204.49v-3.33h71.46v3.33h-71.46Z"/></g></g></svg>