<?xml version="1.0" encoding="UTF-8"?><svg id="Layer_2" xmlns="http://www.w3.org/2000/svg" viewBox="0 0 205.3 205.59"><defs><style>.cls-1{fill:#007c49;}.cls-2{fill:#009c5d;}</style></defs><g id="Layer_1-2"><g id="V7OrmZ.tif"><path class="cls-2" d="m110.49,0c3.56.53,7.15.88,10.66,1.61,37.84,7.92,63.18,30.18,76.11,66.58.67,1.88,1.21,3.82,1.64,5.77.72,3.25-1.19,6.37-4.24,7.16-3.18.82-6.28-.81-7.35-3.98-1.03-3.03-1.75-6.18-2.95-9.14-12.05-29.7-33.69-48.13-65.17-54.41C81.3,6.06,41.84,26.39,25.58,61.46c-.25.54-.47,1.08-.9,2.07,1.55-.64,2.73-1.15,3.92-1.62,3.44-1.36,6.93-.03,8.25,3.13,1.32,3.17-.13,6.56-3.57,8.04-5.7,2.46-11.42,4.87-17.16,7.25-3.92,1.62-7.08.29-8.78-3.68-2.18-5.09-4.31-10.21-6.48-15.31-.22-.52-.58-.98-.87-1.47,0-1.88,0-3.75,0-5.63,2.68-3.18,5.06-4.01,7.93-2.87,3.37,1.34,3.63,4.84,5.28,7.64.32-.55.58-.92.76-1.32,3.5-7.78,7.94-14.99,13.39-21.55C42.76,17.63,62.29,6.05,85.99,1.6c3.46-.65,6.96-1.07,10.44-1.6,4.69,0,9.38,0,14.06,0Z"/><path class="cls-2" d="m86.39,108.88c-7.24,0-14.19-.05-21.15.02-2.81.03-4.97-.88-6.25-3.45-1.3-2.62-.53-4.91,1.22-7.03,16.59-20.06,33.17-40.12,49.77-60.18,1.93-2.33,4.44-3.06,6.97-2.13,2.59.96,3.98,3.04,3.98,6.08,0,17.2,0,34.41,0,51.61,0,.79,0,1.58,0,2.63.85,0,1.56,0,2.27,0,6.23,0,12.45.06,18.67-.03,2.87-.04,5.14.78,6.46,3.45,1.34,2.71.46,5.02-1.34,7.19-12.38,14.94-24.74,29.9-37.11,44.86-4.18,5.05-8.36,10.11-12.53,15.17-1.63,1.99-3.71,2.88-6.22,2.35-2.25-.48-3.84-1.89-4.48-4.15-.25-.88-.26-1.85-.26-2.77-.01-17-.01-34-.01-51.01v-2.62Zm-9.12-12.04c5.18,0,9.8,0,14.41,0,4.43,0,6.74,2.35,6.75,6.83,0,13.45,0,26.9,0,40.36,0,.71,0,1.41,0,2.71,10.7-12.95,21.03-25.45,31.62-38.26-5.17,0-9.79,0-14.41,0-4.43,0-6.75-2.35-6.75-6.83,0-13.45,0-26.9,0-40.35,0-.71,0-1.41,0-2.7-10.69,12.93-21,25.41-31.62,38.25Z"/><path class="cls-2" d="m180.93,140.68c-1.8.75-3.13,1.33-4.48,1.86-3.54,1.41-7.1.08-8.42-3.14-1.3-3.17.19-6.53,3.64-8.01,5.71-2.45,11.43-4.88,17.17-7.24,3.85-1.59,7-.29,8.66,3.57,2.45,5.71,4.87,11.43,7.24,17.17,1.41,3.42.06,6.87-3.12,8.22-3.19,1.35-6.47-.09-8.04-3.55-.52-1.14-1.02-2.28-1.65-3.69-3.39,7.74-7.37,14.75-12.37,21.15-16.16,20.67-37.09,33.65-63.07,37.43-54.28,7.9-98.04-26.47-110.23-71.4-1.18-4.36.99-7.6,3.87-8.44,3.59-1.04,6.69,1.01,7.87,5.16,7.38,25.9,23.27,44.65,47.62,56.07,32.88,15.42,73.41,7.44,98.31-19.12,7.07-7.54,12.7-16,17-26.04Z"/><path class="cls-1" d="m77.27,96.84c10.62-12.84,20.94-25.32,31.62-38.25,0,1.29,0,1.99,0,2.7,0,13.45,0,26.9,0,40.35,0,4.48,2.32,6.82,6.75,6.83,4.62,0,9.23,0,14.41,0-10.59,12.81-20.92,25.31-31.62,38.26,0-1.3,0-2.01,0-2.71,0-13.45,0-26.9,0-40.36,0-4.48-2.32-6.82-6.75-6.83-4.62,0-9.23,0-14.41,0Z"/></g></g></svg>