<?xml version="1.0" encoding="UTF-8"?><svg id="Layer_2" xmlns="http://www.w3.org/2000/svg" viewBox="0 0 255.51 254.01"><defs><style>.cls-1{fill:#007c49;}.cls-2{fill:#009c5d;}</style></defs><g id="Layer_1-2"><g id="_8bm0iJ.tif"><path class="cls-2" d="m255.51,232.04v19.46c-1.25,2.14-3.19,2.5-5.52,2.5-81.48-.04-162.96-.03-244.44-.03-.5,0-1,.02-1.5,0-2.61-.11-4-1.44-4.03-4.04-.05-5.32-.04-10.64,0-15.96.02-2.6,1.33-3.89,4.01-4.04,1.3-.07,2.6-.01,4.14-.01,0-2.77,0-5.17,0-7.57q0-9.06,8.93-9.06h7.32c.17-.57.3-.8.31-1.04.03-3.16.04-6.32.04-9.48.01-5.06.93-5.99,5.91-6.05.71,0,1.43-.11,2.13-.16v-81.55c-1.5,0-2.84.1-4.15-.02-2.55-.23-3.7-1.45-3.85-4.01-.08-1.33-.03-2.66-.03-3.99,0-2.79,0-5.58,0-8.54-4.18,0-7.91.03-11.64,0-3.7-.04-4.92-1.26-4.95-4.97-.04-4.24-.01-8.48,0-12.72,0-5.57.8-6.55,6.29-6.31,3.26.14,5.83-.82,8.47-2.66,23.99-16.72,48.06-33.32,72.1-49.99C105.47,14.56,115.86,7.27,126.26,0c1,0,2,0,2.99,0,.23.21.45.46.71.64,33.87,23.46,67.78,46.88,101.58,70.44,3.36,2.34,6.6,3.72,10.75,3.38,3.75-.31,5.01,1.18,5.04,5.06.03,4.41.01,8.81,0,13.22,0,4.69-1.03,5.71-5.72,5.72-3.54,0-7.08,0-10.89,0,0,4.35.06,8.32-.02,12.29-.06,2.83-1.3,4.07-4.12,4.27-1.29.09-2.59.02-3.89.02v81.61c.75.04,1.33.08,1.91.09,5.26.07,6.12.92,6.12,6.09,0,3.39,0,6.78,0,10.48,3.93,0,7.57-.02,11.21,0,4.18.03,5.37,1.21,5.39,5.36.02,3.64,0,7.28,0,11.28,1.66,0,3.12-.27,4.42.08,1.34.36,2.51,1.32,3.75,2.02ZM16,90.72h223.43v-8.82h-3.44c-45.82,0-91.64,0-137.45,0-1,0-2.01.06-2.99-.08-1.98-.29-3.11-1.5-3.19-3.52-.08-2.17,1.12-3.41,3.14-3.85.8-.17,1.66-.06,2.49-.06,40.5,0,80.99,0,121.49,0h3.48c-1.17-.89-1.73-1.34-2.33-1.75-30.33-21-60.67-41.99-90.96-63.05-1.69-1.18-2.67-.71-4.07.26-29.49,20.46-59,40.88-88.51,61.31-1.32.91-2.63,1.85-3.95,2.77.05.16.1.31.16.47h2.65c14.8,0,29.6,0,44.4,0,2.88,0,4.53,1.47,4.48,3.85-.05,2.24-1.66,3.58-4.42,3.65-.75.02-1.5,0-2.25,0-19.71,0-39.41,0-59.12,0h-3.03v8.82Zm49.47,105.91c.74.04,1.23.09,1.73.1,5.79.09,6.54.87,6.54,6.73,0,3.21,0,6.42,0,9.65h29.58c0-3.99-.01-7.8,0-11.61.02-3.3,1.35-4.66,4.67-4.76,1.12-.04,2.24,0,3.43,0v-81.68c-1.11,0-2.08.02-3.06,0-3.84-.09-5.04-1.3-5.05-5.13,0-3.72,0-7.45,0-11.32h-29.58c0,3.92.03,7.72,0,11.52-.03,3.47-1.36,4.8-4.83,4.92-1.12.04-2.25,0-3.43,0v81.58Zm86.73,16.49h29.59c0-4.06-.05-7.95.02-11.84.05-2.98,1.49-4.39,4.46-4.54,1.22-.06,2.44,0,3.76,0v-81.55c-.78-.05-1.43-.12-2.08-.13-5.2-.09-6.15-1.03-6.15-6.11,0-3.39,0-6.79,0-10.28h-29.59c0,4.2.03,8.19-.01,12.17-.03,2.51-1.25,3.87-3.72,4.12-1.38.14-2.78.03-4.34.03v81.74c1.03,0,1.93,0,2.83,0,3.98.05,5.23,1.28,5.24,5.2,0,3.65,0,7.29,0,11.18ZM7.6,246.27h240.29v-8.65H7.6v8.65Zm8.37-16.54h223.52v-8.56H15.97v8.56Zm41.8-114.46h-17.05v81.31h17.05v-81.31Zm157.02,81.35v-81.4h-17v81.4h17Zm-95.43-81.45v81.41h16.81v-81.41h-16.81Zm25.24-16.5h-33.57v8.53h33.57v-8.53Zm-78.7-.04h-33.35v8.61h33.35v-8.61Zm123.74,8.57h33.34v-8.61h-33.34v8.61Zm-45.05,97.39h-33.58v8.52h33.58v-8.52Zm-111.97-.04v8.56h33.26v-8.56h-33.26Zm190.39,8.6v-8.54h-33.32v8.54h33.32Z"/><path class="cls-1" d="m144.59,98.68v8.53h-33.57v-8.53h33.57Z"/><path class="cls-1" d="m65.9,98.64v8.61h-33.35v-8.61h33.35Z"/><path class="cls-1" d="m189.63,107.21v-8.61h33.34v8.61h-33.34Z"/><path class="cls-1" d="m144.58,204.6v8.52h-33.58v-8.52h33.58Z"/><path class="cls-1" d="m32.6,204.56h33.26v8.56h-33.26v-8.56Z"/><path class="cls-1" d="m222.99,213.16h-33.32v-8.54h33.32v8.54Z"/><path class="cls-2" d="m127.73,41.37c6.75,0,12,5.21,12.01,11.95,0,6.71-5.27,12.03-11.96,12.04-6.69,0-12-5.29-12.01-11.99,0-6.76,5.21-11.99,11.96-12Zm.11,16.48c2.36-.05,4.43-2.17,4.41-4.52-.01-2.46-2.23-4.55-4.7-4.44-2.38.11-4.37,2.25-4.28,4.6.09,2.36,2.24,4.41,4.57,4.36Z"/><path class="cls-1" d="m127.84,57.84c-2.33.05-4.48-2-4.57-4.36-.09-2.35,1.9-4.49,4.28-4.6,2.47-.12,4.68,1.98,4.7,4.44.01,2.35-2.05,4.46-4.41,4.52Z"/></g></g></svg>