<?xml version="1.0" encoding="UTF-8"?><svg id="Layer_2" xmlns="http://www.w3.org/2000/svg" viewBox="0 0 217.12 228.46"><defs><style>.cls-1{fill:#007c49;}.cls-2{fill:#009c5d;}</style></defs><g id="Layer_1-2"><g id="rzRd5O.tif"><path class="cls-2" d="m52.66,228.46c-.32-.16-.64-.36-.98-.46-6.1-1.9-10.02-6.85-10.07-13.2-.09-11.67-.25-23.35.05-35.02.34-13.57,7.91-22.24,19.89-27.56,7.34-3.26,15.27-4.21,23.03-5.79,7.05-1.44,14.12-2.75,21.19-4.09,1.1-.21,1.82-.62,1.63-1.88-.01-.07,0-.15,0-.22.6-4.25-.63-7.28-4.3-10.15-6.42-5.01-9.8-12.17-11.15-20.21-.24-1.41-.57-2.25-2.25-2.68-4.18-1.06-6.7-4.54-6.99-9.03-.05-.74-.07-1.49-.01-2.23.2-2.71-.2-4.77-2.68-6.82-4.7-3.88-3.29-11.66,2.17-14.45.65-.33,1.34-.58,1.42-1.03,1-5.44,1.43-11.06,3.1-16.28,5.48-17.12,21.48-28.64,39.43-29.32,10.78-.41,20.9,1.34,29.79,7.76,12.02,8.67,18.12,20.51,18.52,35.31.02.88,0,1.77,0,2.58,5.7,2.58,8.11,6.42,6.6,11.35-.6,1.98-2.21,3.78-3.74,5.28-.88.87-1.41,1.51-1.37,2.73.07,1.71.06,3.42-.02,5.13-.21,4.65-2.85,8.04-7.35,9.19-1.17.3-1.55.74-1.71,1.86-1.4,9.59-6.11,17.26-13.78,23.09-1.31,1-1.98,1.96-1.84,3.66.16,1.91.04,3.85.04,5.96,4.6.9,9.11,1.76,13.6,2.67,8.72,1.77,17.47,3.39,26.13,5.43,5.83,1.38,11.14,4.11,15.76,7.99,7.34,6.16,10.39,14.22,10.35,23.65-.05,10.56,0,21.12-.01,31.68-.01,7.87-3.11,12.15-10.63,14.79-.12.04-.21.2-.31.3H52.66Zm136.59-6.69c4.57,0,8.86.01,13.16,0,5.09-.02,7.84-2.75,7.85-7.83.01-10.93.03-21.85-.02-32.78,0-1.99-.12-4.02-.51-5.97-1.59-7.86-6.77-12.64-14.4-16.29-1.66,8.19-3.4,15.9-4.74,23.69-.76,4.45-.83,9.01-1.28,13.52-.2,2.05-1.49,2.98-3.51,2.91-1.88-.07-3.07-1.3-3.19-3.31-.03-.52.01-1.04.04-1.56.67-11.9,2.6-23.57,6.1-34.98.84-2.73.78-2.85-1.92-3.39-6.83-1.37-13.68-2.68-20.52-4.03-1.2-.24-2.01-.03-2.79,1.11-8.79,12.79-17.74,25.48-26.41,38.35-1.78,2.64-3.37,5.84-3.68,8.92-.68,6.7-.49,13.48-.64,20.23,0,.42.09.84.14,1.24h49.61c0-4.03-.01-7.9,0-11.76.01-2.6,1.25-4.07,3.36-4.08,2.09,0,3.32,1.46,3.34,4.08.02,3.86,0,7.72,0,11.94Zm-113.1-.14h49.77c0-5.47-.07-10.81.02-16.14.09-5.55-1.56-10.48-4.71-15.01-8.64-12.43-17.27-24.88-25.83-37.37-.92-1.35-1.82-1.62-3.32-1.29-4.35.93-8.72,1.71-13.08,2.58-3.23.65-6.46,1.34-9.99,2.08,7.71,21.36,7.57,43.19,7.14,65.15Zm13.42-129.62c0,1.53,0,2.86,0,4.19,0,4.15.42,4.58,4.53,4.69,2.73.07,3.95,1.23,4.05,3.91.83,20.64,21.04,31.55,36.92,28.4,12.21-2.42,24.68-11.59,25.56-28.76.12-2.36,1.34-3.45,3.69-3.55.82-.04,1.81.24,2.41-.14.95-.6,2.15-1.53,2.32-2.48.36-2,.11-4.1.11-6.26h-79.59Zm1.59-18.5h76.28c1.94-11.98-7.57-29.49-18.49-33.77,0,1.18.04,2.26,0,3.34-.11,2.45-1.38,3.78-3.5,3.74-2.02-.04-3.23-1.3-3.34-3.66-.09-1.78.06-3.57-.08-5.35-.04-.58-.55-1.5-1.01-1.61-2.62-.63-5.29-1.07-8.24-1.63,0,1.28,0,2.08,0,2.88,0,4.39.03,8.77-.02,13.16-.03,2.65-1.3,4.06-3.42,4.04-2.14-.02-3.38-1.46-3.4-4.08-.03-4.53,0-9.07-.01-13.6,0-.7,0-1.39,0-2.41-2.89.56-5.35,1.07-7.82,1.48-1.2.2-1.6.79-1.56,1.96.07,1.86.06,3.72-.02,5.57-.09,2.04-1.32,3.21-3.2,3.26-1.95.05-3.34-1.22-3.47-3.27-.08-1.23-.01-2.47-.01-3.81-10.23,4.67-19.74,18.44-18.66,33.77Zm-21.86,148.23c.39-21.27.72-42.25-6.55-62.56-7.85,3.8-13.64,9.32-14.01,18.23-.52,12.54-.28,25.12-.23,37.68.02,3.71,2.81,6.48,6.53,6.61,4.67.16,9.36.04,14.26.04Zm75.29-84.19c-13.12,3.91-13.34,3.91-30.39.11,0,1.66.14,3.29-.03,4.9-.39,3.74,1,6.8,3.79,9.05,3.28,2.64,6.8,4.97,10.3,7.31.52.35,1.68.36,2.19,0,3.71-2.56,7.55-4.99,10.88-7.99,1.61-1.45,2.62-3.94,3.14-6.14.53-2.25.12-4.72.12-7.24Zm-15.19-52.35c13.76,0,27.51,0,41.27,0,.67,0,1.52.22,1.96-.11.79-.59,1.83-1.51,1.84-2.3,0-.79-1.04-1.69-1.81-2.32-.37-.3-1.15-.13-1.74-.13-27.74,0-55.47,0-83.21,0-.37,0-.74-.01-1.11.02-1.56.12-2.56.91-2.51,2.52.05,1.48,1.01,2.25,2.48,2.32.59.03,1.19.01,1.78.01,13.68,0,27.36,0,41.05,0Zm-11.37,88.78c3.69,5.34,7.5,10.86,11.35,16.43,3.85-5.58,7.65-11.08,11.33-16.42-3.37-1.99-6.59-3.82-9.72-5.77-1.14-.71-1.99-.78-3.18-.04-3.19,2.01-6.47,3.85-9.79,5.8Zm18.65-10.21c1.26.76,2.58,1.57,3.91,2.36,2.26,1.33,4.6,1.13,6.14-.97,3.58-4.88,6.96-9.91,10.55-15.08-1.87-.39-3.45-.71-5.01-1.05-1.07-.24-1.63.09-2.24,1.13-1.22,2.1-2.5,4.27-4.21,5.93-2.8,2.72-5.97,5.05-9.15,7.69Zm-14.36-.24c-.71-.47-1.32-.85-1.92-1.26-3.89-2.62-7.57-5.47-10.24-9.41-.88-1.3-1.51-3.33-2.7-3.73-1.4-.48-3.28.43-4.95.75-.25.05-.5.13-1.01.27,3.56,5.13,6.89,10.09,10.42,14.92,1.58,2.16,4.05,2.39,6.32,1,1.32-.81,2.63-1.64,4.07-2.54Z"/><path class="cls-2" d="m0,62.48c1.77-4.38,5.06-6.12,9.69-5.79,1.91.14,4.27.58,5.66-.32,1.25-.8,1.38-3.26,2.1-4.95,1.04-2.46,2.02-4.96,3.31-7.28.9-1.62.74-2.64-.64-3.81-1.41-1.2-2.68-2.58-3.95-3.93-3.18-3.36-3.2-7.65,0-10.95,3.06-3.15,6.15-6.26,9.31-9.31,3.22-3.12,7.52-3.12,10.8-.07,1.58,1.47,3.11,2.99,4.57,4.57.87.94,1.61.9,2.73.4,3.79-1.68,7.61-3.31,11.49-4.76,1.31-.49,1.71-1.11,1.66-2.41-.08-2.08-.07-4.16,0-6.24.12-4.38,3.33-7.57,7.67-7.6,4.46-.03,8.92-.04,13.39,0,4.2.04,7.31,3.05,7.49,7.25.09,2.15.09,4.31.02,6.47-.05,1.41.47,2.05,1.83,2.56,3.81,1.42,7.57,3,11.27,4.7,1.33.61,2.15.47,3.1-.57,1.35-1.49,2.79-2.89,4.25-4.26,3.76-3.55,9.24-2.94,12.19,1.32,1.05,1.52.9,2.97-.33,4.24-1.31,1.35-2.85,1.51-4.42.4-.66-.46-1.24-1.04-2.36-1.99-1.66,1.82-3.24,3.68-4.95,5.41-3.2,3.23-6.19,3.54-10.31,1.61-3.55-1.66-7.19-3.14-10.87-4.49-4.13-1.51-6.1-4.06-6.12-8.5,0-1.86-.05-3.72.01-5.58.04-1.28-.33-1.93-1.75-1.91-3.87.05-7.73.05-11.6,0-1.25-.01-1.76.5-1.75,1.71.01,2.23.05,4.46-.04,6.69-.15,3.69-1.99,5.97-5.46,7.33-4.06,1.59-8.1,3.27-12.09,5.04-3.42,1.52-6.49,1.15-9.24-1.45-1.78-1.68-3.5-3.43-5.26-5.15-.1-.1-.26-.14-.18-.1-3.47,3.49-6.9,6.93-10.87,10.92,1.51,1.31,3.38,2.77,5.06,4.42,3.43,3.37,3.7,6.3,1.61,10.67-1.63,3.4-3.04,6.92-4.31,10.47-1.52,4.26-3.88,6.17-8.38,6.26-1.93.04-3.87.04-5.8,0-1.29-.02-1.89.45-1.86,1.83.06,3.79.07,7.58,0,11.38-.03,1.49.58,1.95,1.99,1.9,2.08-.08,4.16-.05,6.25,0,3.55.08,6.13,2.04,7.45,5.36,1.67,4.19,3.42,8.36,5.22,12.5,1.39,3.2,1,6.34-1.46,8.85-1.86,1.9-3.91,3.63-6.14,5.68,3.67,3.64,6.9,6.89,10.23,10.03.28.27,1.41.05,1.82-.31,1.56-1.38,2.96-2.92,4.45-4.38,2.95-2.87,6.01-3.23,9.78-1.5,3.7,1.7,7.45,3.29,11.26,4.71,4.04,1.5,5.87,3.78,5.97,8.1.04,1.93.04,3.87,0,5.8-.03,1.25.33,1.93,1.76,1.91,3.87-.06,7.73-.06,11.6,0,1.4.02,1.8-.56,1.75-1.87-.08-2.15-.07-4.31,0-6.47.1-3.32,2.13-6.1,5.12-7.15,2.03-.72,3.77-.1,4.52,1.6.78,1.76.13,3.27-1.6,4.54-.64.47-1.2,1.45-1.26,2.24-.18,2.22-.01,4.46-.11,6.69-.16,3.67-2.59,6.74-6.25,6.98-5.25.34-10.55.35-15.8.03-3.82-.24-6.35-3.45-6.48-7.3-.07-2.15-.08-4.31,0-6.47.05-1.22-.37-1.84-1.54-2.3-4-1.57-7.92-3.31-11.93-4.86-.63-.24-1.74-.06-2.24.38-1.69,1.45-3.16,3.15-4.79,4.67-3.16,2.96-7.51,3.04-10.64.06-3.29-3.12-6.49-6.34-9.62-9.62-3-3.15-2.93-7.44.06-10.63,1.48-1.57,3-3.1,4.57-4.57.92-.86.92-1.62.42-2.74-1.71-3.86-3.21-7.8-4.94-11.65-.31-.68-1.25-1.37-2-1.5-1.37-.24-2.83-.19-4.22-.05-4.59.47-7.92-1.23-9.87-5.46v-17.4Z"/><path class="cls-2" d="m46.23,71.1c.08,13.58,11.04,24.63,24.66,24.79.52,0,1.04-.03,1.56-.02,2.27.05,3.61,1.29,3.62,3.32.01,2.01-1.33,3.29-3.61,3.4-5.14.24-10.04-.73-14.7-2.91-12.8-5.99-20-19.42-17.97-33.48,1.9-13.19,12.64-24.04,26.15-26.35,5.3-.91,10.51-.38,15.57,1.4,2.51.88,3.41,2.46,2.7,4.55-.66,1.98-2.46,2.66-4.95,1.87-15.11-4.79-29.69,3.76-32.68,19.21-.27,1.38-.26,2.8-.38,4.21Z"/><path class="cls-1" d="m91.16,73.52c-1.08-15.33,8.43-29.1,18.66-33.77,0,1.34-.06,2.58.01,3.81.13,2.05,1.52,3.32,3.47,3.27,1.89-.05,3.11-1.22,3.2-3.26.09-1.85.09-3.72.02-5.57-.04-1.18.36-1.76,1.56-1.96,2.48-.41,4.94-.93,7.82-1.48,0,1.02,0,1.72,0,2.41,0,4.53-.02,9.07.01,13.6.02,2.62,1.27,4.06,3.4,4.08,2.12.02,3.39-1.39,3.42-4.04.05-4.38.02-8.77.02-13.16,0-.8,0-1.6,0-2.88,2.95.56,5.62,1,8.24,1.63.46.11.97,1.03,1.01,1.61.14,1.77,0,3.57.08,5.35.11,2.37,1.32,3.63,3.34,3.66,2.12.04,3.38-1.3,3.5-3.74.05-1.08,0-2.16,0-3.34,10.92,4.28,20.44,21.79,18.49,33.77h-76.28Z"/><path class="cls-1" d="m129.39,85.22c-13.68,0-27.36,0-41.05,0-.59,0-1.19.02-1.78-.01-1.47-.07-2.43-.83-2.48-2.32-.05-1.61.96-2.4,2.51-2.52.37-.03.74-.02,1.11-.02,27.74,0,55.47,0,83.21,0,.59,0,1.37-.17,1.74.13.77.64,1.82,1.54,1.81,2.32,0,.79-1.05,1.71-1.84,2.3-.44.33-1.3.11-1.96.11-13.76,0-27.51,0-41.27,0Z"/></g></g></svg>