<?xml version="1.0" encoding="UTF-8"?><svg id="Layer_2" xmlns="http://www.w3.org/2000/svg" viewBox="0 0 221.62 223.28"><defs><style>.cls-1{fill:#007c49;}.cls-2{fill:#009c5d;}</style></defs><g id="Layer_1-2"><g id="a3lbdn.tif"><path class="cls-2" d="m194.97,0c2.19,1.23,3.74,2.93,3.86,5.68,5.47,0,10.77,0,16.06,0,4.61,0,6.7,2.06,6.71,6.59.01,5.23.01,10.47,0,15.7-.01,4.42-2.08,6.47-6.57,6.49-5.3.02-10.6,0-16.1,0-1.02,7.52-6.96,5.32-11.73,5.78v130.66c3.13,0,6.31.2,9.46-.04,6.13-.47,10.13,3.64,9.85,9.87-.25,5.66-.05,11.33-.05,17,0,.78,0,1.57,0,2.47,1.81.12,3.4.14,4.97.33,5.61.7,9.82,5.22,10.07,10.84.09,2.1.08,4.22,0,6.32-.12,3.36-2.36,5.56-5.71,5.56-28.49.02-56.98.02-85.47,0-3.33,0-5.51-1.93-5.77-5.26-.18-2.24-.19-4.51,0-6.75.57-6.41,4.99-10.56,11.45-10.88,1.08-.05,2.17,0,3.57,0,0-.91,0-1.68,0-2.45,0-6.18-.02-12.35,0-18.53.02-5.04,3.4-8.43,8.47-8.48,3.19-.04,6.37,0,9.73,0V40.17c-1.46,0-2.96,0-4.45,0-4.72,0-5.94-.92-7.32-5.57h-69.67c0,3.61-.04,7.21.04,10.81.01.47.56.98.94,1.39,3.27,3.51,6.51,7.05,9.89,10.45.71.71,1.95,1.2,2.97,1.24,4.45.19,6.39,2,6.43,6.43.04,4.36.04,8.72,0,13.08-.04,4.45-1.93,6.33-6.44,6.34-11.48.03-22.97.03-34.45,0-4.42-.01-6.35-2-6.37-6.42-.01-4.43-.03-8.87,0-13.3.03-3.94,2.12-6.08,6.08-6.03,1.59.02,2.69-.43,3.76-1.62,3.1-3.46,6.34-6.8,9.5-10.22.42-.46.96-1.06.97-1.6.09-3.47.04-6.94.04-10.68-4.1,0-8,0-11.9,0-1.16,0-2.33.02-3.49,0-3.96-.07-6.21-2.29-6.25-6.25-.05-5.23-.02-10.47,0-15.7.01-4.63,2.19-6.83,6.79-6.83,15.77,0,31.54,0,47.31,0,13.81,0,27.62,0,41.42,0h2.53c.15-2.75,1.67-4.47,3.88-5.68h44.92Zm-48.83,200.36c.99,0,1.77,0,2.55,0,4.94,0,9.88,0,14.82,0,.72,0,1.46.02,2.16.16,1.63.33,2.55,1.42,2.62,3.04.08,1.63-.78,2.8-2.37,3.24-.82.23-1.72.25-2.58.26-9.01.02-18.02,0-27.02.02-2.72,0-4.77,1.53-5.01,3.86-.19,1.85-.04,3.73-.04,5.65h83.65c0-1.16,0-2.16,0-3.17-.02-4.82-1.56-6.36-6.41-6.36-8.94,0-17.87.01-26.81-.01-2.65,0-4.19-1.34-4.14-3.44.05-2,1.53-3.22,4.1-3.24,3.92-.04,7.85-.01,11.77-.01,2.07,0,4.15,0,6.39,0,0-7.21,0-14.1,0-20.99,0-1.54-.98-1.91-2.32-1.91-16.35.01-32.69.02-49.04,0-1.7,0-2.34.83-2.32,2.42.02,2.03,0,4.07,0,6.1,0,4.7,0,9.41,0,14.38Zm6.98-193.72v26.79h38.82V6.64h-38.82Zm-96.87,58.75v12.13h33.55v-12.13h-33.55ZM94.29,12.34h-27c4.24,4.61,8.74,9.49,13.55,14.73,4.8-5.26,9.27-10.15,13.44-14.73Zm18.95,0c4.21,4.61,8.69,9.52,13.5,14.79,4.82-5.24,9.3-10.12,13.59-14.79h-27.09Zm-23.09,15.4h28.2c-5.04-4.88-9.81-9.49-14.9-14.41-4.64,5.03-9.09,9.84-13.31,14.41Zm75.48,54.85c5.14,4.86,9.89,9.35,14.49,13.7v-27.19c-4.61,4.29-9.38,8.73-14.49,13.49Zm-.03,45.8c5.16,4.84,9.92,9.32,14.51,13.63v-27.11c-4.6,4.27-9.36,8.7-14.51,13.48Zm-.67-82.13v26.46c4.35-4.01,9.18-8.47,14.31-13.2-4.96-4.6-9.73-9.02-14.31-13.26Zm14.29,59.28c-5.03-4.69-9.82-9.16-14.36-13.39v26.77c4.55-4.24,9.35-8.71,14.36-13.38Zm-14.39,59.02c4.54-4.21,9.35-8.68,14.43-13.4-5-4.68-9.79-9.16-14.43-13.49v26.9ZM70.88,27.81c-4.24-4.63-8.93-9.78-13.68-14.86-.46-.49-1.37-.57-2.25-.9v15.76h15.93Zm144.04-4.35v-11.08h-10.14c3.1,3.39,6.44,7.04,10.14,11.08Zm-68.88,4.39v-10.72c-3.57,3.82-6.91,7.4-10.01,10.72h10.01Zm52.89-11.08v11.05h10.3c-3.21-3.44-6.54-7.01-10.3-11.05Zm-29.75,23.54c3.91,3.72,7.44,7.07,10.97,10.42v-10.42h-10.97Zm0,130.47h10.96v-10.33c-3.5,3.3-7.04,6.64-10.96,10.33ZM66.93,58.41h12.2c-2.18-2.34-4.09-4.39-6.1-6.54-2.04,2.19-3.91,4.19-6.11,6.54Z"/><path class="cls-2" d="m60.64,113.41c4.98,0,9.69-.03,14.4.01,2.54.02,4.06,1.84,3.49,4.09-.47,1.85-1.82,2.47-3.61,2.46-4.64-.02-9.29,0-14.11,0v16.67h9.88c7.32,0,8,.68,8,7.92,0,7.41,0,14.83,0,22.24,0,.73.02,1.46-.06,2.18-.2,1.87-1.56,3.19-3.24,3.19-1.64,0-3.14-1.36-3.31-3.17-.12-1.3-.05-2.61-.05-3.92,0-7.12,0-14.23,0-21.6-.87-.04-1.64-.1-2.4-.1-9.59,0-19.19,0-28.78,0-3.86,0-4.87-1.03-4.88-4.95,0-8.14,0-16.28,0-24.42,0-.86,0-1.71,0-2.84-3.38,0-6.55.04-9.73-.02-1.94-.04-3.11-1.16-3.41-3.04-.25-1.57,1.01-3.17,2.66-3.43.93-.15,1.88-.12,2.83-.13,2.45-.02,4.91,0,7.5,0v-11.76c-3.39,0-6.71.03-10.03,0-2.41-.03-3.76-1.03-4-2.85-.31-2.3,1.13-3.8,3.86-3.85,3.33-.06,6.66-.01,10.15-.01v-7.89H6.68v138.47h65.37c0-.89,0-1.67,0-2.45,0-9.59,0-19.19.01-28.78,0-.86-.11-1.99.37-2.51.85-.92,2.06-1.91,3.21-2.04,1.52-.17,2.69.94,2.94,2.63.1.64.12,1.3.12,1.95,0,10.39,0,20.79,0,31.18,0,.72-.03,1.46-.13,2.17-.37,2.76-2.22,4.47-4.98,4.47-22.82.02-45.64.02-68.46,0-2.96,0-4.89-1.88-5.09-4.82-.05-.8-.04-1.6-.04-2.4,0-45.86,0-91.72,0-137.58,0-.51,0-1.02,0-1.53.1-3.74,1.91-5.56,5.7-5.6,4.72-.04,9.45-.01,14.17-.01,5.81,0,11.63-.02,17.44,0,3.88.02,5.36,1.55,5.37,5.47.01,11.34,0,22.68,0,34.01,0,.78,0,1.56,0,2.46h11.41c0-2.23,0-4.52,0-6.81,0-.87-.02-1.75,0-2.62.07-2.15,1.4-3.56,3.3-3.53,1.89.03,3.19,1.45,3.22,3.62.04,3.04,0,6.09,0,9.45Zm-17.83,6.69v16.41h11.17v-16.41h-11.17Z"/><path class="cls-2" d="m39.3,185.86c6.39,0,12.77-.01,19.16,0,3.9.01,5.79,1.81,5.86,5.66.06,3.99.07,7.98,0,11.97-.07,3.77-1.86,5.6-5.69,5.61-12.85.05-25.69.05-38.54,0-3.92-.01-5.69-1.88-5.71-5.77-.03-3.99-.04-7.98,0-11.97.04-3.59,1.92-5.48,5.54-5.5,6.46-.04,12.92-.01,19.38-.01Zm-18.26,16.43h14.76v-9.58h-14.76v9.58Zm21.76,0h14.71v-9.59h-14.71v9.59Z"/><path class="cls-2" d="m39.2,176.17c-6.4,0-12.79,0-19.19,0-3.82,0-5.6-1.76-5.63-5.59-.03-4-.04-7.99,0-11.99.03-3.74,1.78-5.52,5.46-5.53,13.01-.02,26.02-.02,39.03,0,3.54,0,5.37,1.77,5.45,5.35.09,4.14.09,8.29,0,12.43-.08,3.56-1.95,5.31-5.48,5.32-6.54.02-13.08,0-19.62,0Zm-18.15-6.69h14.83v-9.74h-14.83v9.74Zm36.53-9.75h-14.71v9.76h14.71v-9.76Z"/><path class="cls-1" d="m153.86,5.63c13,.69,25.81,1.37,38.76,2.05-.47,8.93-.94,17.75-1.42,26.75-12.85-.68-25.72-1.36-38.76-2.05.47-8.84.94-17.71,1.42-26.75Z"/><path class="cls-1" d="m56.26,65.39h33.55v12.13h-33.55v-12.13Z"/><path class="cls-1" d="m66.93,58.41c2.2-2.35,4.06-4.35,6.11-6.54,2,2.15,3.92,4.2,6.1,6.54h-12.2Z"/><path class="cls-1" d="m42.82,120.1h11.17v16.41h-11.17v-16.41Z"/><path class="cls-1" d="m21.04,202.3v-9.58h14.76v9.58h-14.76Z"/><path class="cls-1" d="m42.81,202.3v-9.59h14.71v9.59h-14.71Z"/><path class="cls-1" d="m21.04,169.48v-9.74h14.83v9.74h-14.83Z"/><path class="cls-1" d="m57.57,159.73v9.76h-14.71v-9.76h14.71Z"/></g></g></svg>