<?xml version="1.0" encoding="UTF-8"?><svg id="Layer_2" xmlns="http://www.w3.org/2000/svg" viewBox="0 0 213.44 213.48"><defs><style>.cls-1{fill:#007c49;}.cls-2{fill:#009c5d;}</style></defs><g id="Layer_1-2"><g id="HfFf5o.tif"><path class="cls-2" d="m52.03,0h109.39c1.79,1.16,2.26,2.81,2.25,4.91-.06,18.82-.04,37.65-.04,56.47v2.65h2.77c14.01,0,28.02,0,42.02,0,4.03,0,5.01.96,5.01,4.92,0,46.54,0,93.09,0,139.63,0,3.83-1.02,4.85-4.86,4.85-67.89,0-135.78,0-203.66.04-2.1,0-3.75-.46-4.92-2.25V66.26c1.16-1.8,2.81-2.26,4.91-2.25,14.14.07,28.28.04,42.43.04.78,0,1.57,0,2.48,0v-2.94c0-18.73.03-37.47-.04-56.2,0-2.1.46-3.75,2.25-4.91Zm36.76,206.24v-35.54h-6.81v-6.87h49.51v7h-6.87v35.38h31.77V7.28H57.03v198.96h31.76Zm75.01-135v134.92h42.42V71.24h-42.42ZM49.66,206.24V71.32H7.23v134.92h42.43Zm46.57-35.41v35.39h21.04v-35.39h-21.04Z"/><path class="cls-2" d="m96.06,49.8c-3.49,0-6.73.01-9.97,0-2.99-.01-4.24-1.21-4.25-4.11-.02-4.37-.02-8.74,0-13.12.01-2.82,1.25-4.07,4.05-4.09,3.32-.03,6.63,0,10.18,0,0-3.51-.02-6.82,0-10.14.02-2.82,1.25-4.07,4.05-4.09,4.45-.03,8.89-.03,13.34,0,2.65.02,3.91,1.31,3.93,3.98.03,3.32,0,6.64,0,10.24,3.39,0,6.62,0,9.85,0,3.21.01,4.37,1.18,4.37,4.44,0,4.3.02,8.6,0,12.89-.02,2.67-1.29,3.96-3.93,3.99-3.33.03-6.65,0-10.29,0,0,3.34,0,6.57,0,9.8-.01,3.24-1.17,4.42-4.39,4.43-4.3.01-8.6.02-12.89,0-2.78-.02-4.02-1.29-4.04-4.1-.02-3.26,0-6.51,0-10.12Zm14.23,7.04c0-3.39,0-6.56,0-9.74.01-3.23,1.17-4.39,4.41-4.4,3.23-.01,6.46,0,9.65,0v-7.13h-6.6c-7.42,0-7.46-.04-7.46-7.35v-6.77h-7.13c0,3.35.01,6.58,0,9.82-.01,3.09-1.21,4.28-4.3,4.29-3.24.01-6.48,0-9.8,0v7.13c2.41,0,4.69,0,6.97,0,6.95,0,7.12.17,7.12,7.02,0,2.35,0,4.69,0,7.12h7.13Z"/><path class="cls-2" d="m138.63,92.49c-2.22,0-4.44.03-6.65,0-2.54-.04-3.86-1.3-3.88-3.79-.04-4.58-.04-9.17,0-13.75.02-2.48,1.35-3.76,3.89-3.78,4.51-.03,9.02-.03,13.53,0,2.62.02,3.88,1.32,3.89,4,.03,4.43.03,8.87,0,13.3-.02,2.75-1.31,3.98-4.12,4.01-2.22.02-4.43,0-6.65,0Zm-3.37-7.27h6.93v-6.82h-6.93v6.82Z"/><path class="cls-2" d="m106.73,92.49c-2.22,0-4.43.02-6.65,0-2.68-.03-3.98-1.28-4-3.9-.03-4.51-.03-9.02,0-13.53.02-2.63,1.31-3.88,4-3.89,4.43-.03,8.87-.03,13.3,0,2.76.02,4,1.3,4.01,4.11.02,4.36.02,8.72,0,13.08-.01,2.9-1.27,4.1-4.23,4.12-2.14.02-4.29,0-6.43,0Zm3.43-7.21v-6.87h-6.83v6.87h6.83Z"/><path class="cls-2" d="m64.04,81.61c0-2.14-.02-4.29,0-6.43.03-2.69,1.26-3.99,3.88-4.01,4.51-.04,9.02-.03,13.53,0,2.63.02,3.89,1.31,3.91,3.99.03,4.43.03,8.87,0,13.3-.02,2.69-1.27,4-3.88,4.02-4.51.04-9.02.03-13.53,0-2.63-.02-3.88-1.32-3.91-3.99-.03-2.29,0-4.58,0-6.87Zm7.21,3.62h6.85v-6.87h-6.85v6.87Z"/><path class="cls-2" d="m85.37,110.39c0,2.22.03,4.44,0,6.65-.04,2.53-1.31,3.87-3.79,3.89-4.58.04-9.17.04-13.75,0-2.48-.02-3.76-1.36-3.78-3.89-.03-4.51-.03-9.02,0-13.53.02-2.62,1.32-3.87,4-3.89,4.43-.03,8.87-.03,13.3,0,2.75.02,3.98,1.3,4.01,4.12.02,2.22,0,4.43,0,6.65Zm-7.25,3.35v-6.85h-6.86v6.85h6.86Z"/><path class="cls-2" d="m117.39,110.16c0,2.29.03,4.58,0,6.87-.04,2.54-1.3,3.88-3.77,3.9-4.58.04-9.17.04-13.75,0-2.49-.02-3.77-1.35-3.79-3.88-.03-4.51-.03-9.02,0-13.53.02-2.63,1.31-3.89,3.99-3.9,4.43-.03,8.87-.03,13.3,0,2.76.02,3.99,1.29,4.02,4.1.02,2.14,0,4.29,0,6.43Zm-14.14,3.52h6.93v-6.84h-6.93v6.84Z"/><path class="cls-2" d="m138.58,120.95c-2.29,0-4.58.05-6.87-.01-2.25-.06-3.59-1.36-3.61-3.61-.05-4.73-.06-9.46,0-14.19.03-2.12,1.37-3.47,3.48-3.5,4.8-.06,9.61-.06,14.41,0,1.99.03,3.35,1.38,3.38,3.37.07,4.8.07,9.61,0,14.41-.03,2.2-1.42,3.46-3.71,3.51-2.36.05-4.73.01-7.1.01Zm3.64-14.12h-6.92v6.88h6.92v-6.88Z"/><path class="cls-2" d="m74.91,128.08c2.22,0,4.44-.03,6.65,0,2.49.05,3.78,1.34,3.8,3.87.03,4.51.03,9.02,0,13.53-.02,2.63-1.32,3.9-3.99,3.91-4.43.03-8.87.03-13.3,0-2.69-.02-4-1.27-4.02-3.88-.03-4.51-.03-9.02,0-13.53.02-2.64,1.31-3.88,3.98-3.91,2.29-.03,4.58,0,6.87,0Zm-3.61,7.2v6.85h6.86v-6.85h-6.86Z"/><path class="cls-2" d="m106.93,128.08c2.14,0,4.29-.02,6.43,0,2.69.03,4,1.27,4.02,3.88.04,4.51.03,9.02,0,13.53-.02,2.62-1.32,3.89-3.99,3.91-4.43.03-8.87.03-13.3,0-2.69-.02-3.99-1.27-4.01-3.88-.03-4.51-.03-9.02,0-13.53.02-2.63,1.31-3.87,3.99-3.91,2.29-.03,4.58,0,6.87,0Zm3.25,7.22h-6.88v6.84h6.88v-6.84Z"/><path class="cls-2" d="m138.63,149.41c-2.22,0-4.44.03-6.65,0-2.54-.04-3.86-1.3-3.88-3.79-.04-4.58-.04-9.17,0-13.75.02-2.48,1.35-3.76,3.89-3.77,4.51-.03,9.02-.03,13.53,0,2.62.02,3.87,1.32,3.89,4.01.03,4.43.03,8.87,0,13.3-.02,2.75-1.31,3.98-4.12,4.01-2.22.02-4.43,0-6.65,0Zm-3.34-7.23h6.87v-6.83h-6.87v6.83Z"/><path class="cls-2" d="m142.39,170.65v-6.85h6.89v6.85h-6.89Z"/><path class="cls-2" d="m149.28,184.88h-6.81v-6.85h6.81v6.85Z"/><path class="cls-2" d="m149.32,192.28v6.81h-6.9v-6.81h6.9Z"/><path class="cls-2" d="m184.87,106.72c-3.33,0-6.66.02-9.99,0-2.82-.02-4.1-1.26-4.11-4.02-.02-6.8-.02-13.61,0-20.41,0-2.68,1.27-3.98,3.9-4,6.88-.03,13.76-.03,20.64,0,2.62.01,3.88,1.32,3.89,4.01.02,6.8.02,13.61,0,20.41-.01,2.75-1.31,3.99-4.13,4-3.4.02-6.8,0-10.21,0Zm-6.84-21.25v13.97h13.96v-13.97h-13.96Z"/><path class="cls-2" d="m170.77,163.65c0-3.33-.01-6.66,0-9.99.01-2.98,1.21-4.23,4.11-4.24,6.73-.02,13.46-.02,20.19,0,2.91,0,4.12,1.26,4.13,4.22.01,6.66.02,13.31,0,19.97,0,3.04-1.24,4.24-4.34,4.24-6.58.01-13.17.01-19.75,0-3.19,0-4.34-1.19-4.35-4.45,0-3.25,0-6.51,0-9.76Zm21.16,7.07v-14.05h-13.89v14.05h13.89Z"/><path class="cls-2" d="m170.77,128.08c0-3.33-.01-6.66,0-9.99.01-2.98,1.21-4.23,4.11-4.24,6.73-.02,13.46-.02,20.19,0,2.91,0,4.13,1.25,4.13,4.22.02,6.66.02,13.31,0,19.97,0,3.04-1.23,4.24-4.33,4.24-6.58.01-13.17.01-19.75,0-3.19,0-4.34-1.19-4.35-4.45,0-3.25,0-6.51,0-9.76Zm7.22-7.03v14h13.96v-14h-13.96Z"/><path class="cls-2" d="m42.68,163.75c0,3.33.02,6.66,0,9.99-.02,2.82-1.25,4.11-4.01,4.12-6.8.02-13.61.02-20.41,0-2.76,0-4-1.3-4.01-4.12-.02-6.73-.02-13.46,0-20.19,0-2.91,1.25-4.12,4.22-4.12,6.66-.01,13.31-.01,19.97,0,3.05,0,4.23,1.23,4.24,4.34.01,3.33,0,6.66,0,9.99Zm-21.16-7.14v14.04h13.92v-14.04h-13.92Z"/><path class="cls-2" d="m42.68,92.56c0,3.4.03,6.81,0,10.21-.03,2.64-1.31,3.93-3.97,3.94-6.8.03-13.61.02-20.41,0-2.79,0-4.04-1.28-4.05-4.08-.02-6.8-.02-13.61,0-20.41.01-2.65,1.3-3.92,3.96-3.93,6.8-.03,13.61-.02,20.41,0,2.79,0,4.03,1.27,4.05,4.07.02,3.4,0,6.8,0,10.21Zm-7.21-7.04h-13.97v13.98h13.97v-13.98Z"/><path class="cls-2" d="m28.46,142.29c-3.33,0-6.66.01-9.99,0-2.97-.02-4.22-1.22-4.23-4.12-.02-6.73-.02-13.46,0-20.19,0-2.91,1.25-4.12,4.23-4.12,6.66-.01,13.31-.01,19.97,0,3.04,0,4.23,1.23,4.24,4.34.01,6.58.01,13.17,0,19.75,0,3.19-1.2,4.34-4.45,4.35-3.25,0-6.51,0-9.76,0Zm-7.04-7.21h14.03v-13.99h-14.03v13.99Z"/><path class="cls-1" d="m110.29,56.84h-7.13c0-2.43,0-4.77,0-7.12,0-6.85-.17-7.02-7.12-7.02-2.28,0-4.56,0-6.97,0v-7.13c3.32,0,6.56.01,9.8,0,3.09-.01,4.28-1.2,4.3-4.29.02-3.24,0-6.48,0-9.82h7.13v6.77c0,7.31.04,7.35,7.46,7.35h6.6v7.13c-3.19,0-6.42,0-9.65,0-3.24.01-4.4,1.17-4.41,4.4-.01,3.17,0,6.35,0,9.74Z"/><path class="cls-1" d="m135.26,85.22v-6.82h6.93v6.82h-6.93Z"/><path class="cls-1" d="m110.16,85.28h-6.83v-6.87h6.83v6.87Z"/><path class="cls-1" d="m71.25,85.24v-6.87h6.85v6.87h-6.85Z"/><path class="cls-1" d="m78.12,113.75h-6.86v-6.85h6.86v6.85Z"/><path class="cls-1" d="m103.25,113.68v-6.84h6.93v6.84h-6.93Z"/><path class="cls-1" d="m142.22,106.82v6.88h-6.92v-6.88h6.92Z"/><path class="cls-1" d="m71.3,135.28h6.86v6.85h-6.86v-6.85Z"/><path class="cls-1" d="m110.18,135.3v6.84h-6.88v-6.84h6.88Z"/><path class="cls-1" d="m135.29,142.18v-6.83h6.87v6.83h-6.87Z"/></g></g></svg>