<?xml version="1.0" encoding="UTF-8"?><svg id="Layer_2" xmlns="http://www.w3.org/2000/svg" viewBox="0 0 209.73 174.8"><defs><style>.cls-1{fill:#007c49;}.cls-2{fill:#009c5d;}</style></defs><g id="Layer_1-2"><g id="cLo3Bv.tif"><path class="cls-2" d="m0,160.29c0-39.86,0-79.71,0-119.57.09-.1.23-.18.27-.29,2.96-9.88,8.74-14.21,19-14.21,13.11,0,26.21,0,39.32,0,.79,0,1.58,0,2.5,0,0-2.84-.07-5.36.02-7.87.06-1.69.17-3.42.58-5.06C63.73,5.13,70.58.04,79.58.02c16.86-.04,33.72-.02,50.58,0,1.56,0,3.16.09,4.67.43,8.16,1.87,13.63,8.67,13.8,17.06.06,2.84,0,5.67,0,8.69,1.1,0,1.91,0,2.72,0,13.11,0,26.21-.02,39.32.02,1.76,0,3.58.04,5.29.43,8.3,1.87,13.76,8.73,13.77,17.23.01,37.46,0,74.93,0,112.39,0,11.02-7.23,18.48-18.23,18.49-57.75.05-115.5.02-173.25.02-.68,0-1.36-.05-2.04-.11-5.93-.46-10.51-3.24-13.59-8.27-1.15-1.87-1.76-4.07-2.62-6.12Zm8.78-66.53c0,1.13,0,1.74,0,2.34,0,19.93,0,39.85,0,59.78,0,6.79,3.4,10.15,10.22,10.15,57.21,0,114.42,0,171.63,0,6.95,0,10.33-3.34,10.33-10.25,0-19.86,0-39.72,0-59.58,0-.71-.06-1.43-.1-2.38-3.73,2.15-7.51,2.37-11.36,2.36-21.44-.03-42.87-.02-64.31-.02-.87,0-1.73,0-2.75,0,0,4.16,0,8.04,0,11.93-.01,3.92-1.57,5.5-5.42,5.5-7.99,0-15.98,0-23.96,0-4.28,0-5.72-1.46-5.73-5.8,0-3.8,0-7.6,0-11.62-1.11,0-1.98,0-2.85,0-20.69,0-41.37,0-62.06,0-4.56,0-9.15.27-13.63-2.42Zm113.65-6.35h2.36c22.05,0,44.1,0,66.15,0,6.53,0,10.02-3.43,10.03-9.93.02-10.85.02-21.7,0-32.55-.01-6.53-3.47-9.95-10-9.95-57.41,0-114.82,0-172.23,0-6.43,0-9.93,3.42-9.95,9.79-.03,10.92-.02,21.84,0,32.75.01,6.42,3.48,9.88,9.86,9.88,22.12,0,44.23,0,66.35,0,.73,0,1.45,0,2.32,0,0-1.48-.03-2.7,0-3.92.08-2.98,1.71-4.8,4.67-4.82,8.6-.07,17.2-.07,25.8,0,2.94.03,4.55,1.86,4.63,4.86.03,1.21,0,2.43,0,3.87Zm17.32-61.28c0-3,.03-5.79,0-8.58-.07-4.94-3.68-8.72-8.66-8.74-17.47-.07-34.94-.06-52.41,0-4.17.01-7.84,2.76-8.39,6.73-.47,3.44-.1,7-.1,10.6h69.57Zm-43.37,61.33v17.22h17v-17.22h-17Z"/><path class="cls-1" d="m96.37,87.46h17v17.22h-17v-17.22Z"/></g></g></svg>