<?xml version="1.0" encoding="UTF-8"?><svg id="Layer_2" xmlns="http://www.w3.org/2000/svg" viewBox="0 0 215.2 215.17"><defs><style>.cls-1{fill:#007c49;}.cls-2{fill:#009c5d;}</style></defs><g id="Layer_1-2"><g id="UrKhzP.tif"><path class="cls-2" d="m215.2,205.49c-.76,1.55-1.33,3.24-2.32,4.63-2.48,3.49-5.98,5.05-10.28,5.05-33.05-.03-66.11-.02-99.16-.02-30.39,0-60.79,0-91.18,0-5.35,0-9.83-3.18-11.57-8.11-1.7-4.84-.19-10.12,3.86-13.43,2.32-1.89,5.01-2.72,7.97-2.74,2.15-.01,4.3,0,6.56,0v-54.81c-3.78.55-6.56,2.46-8.8,5.27-.3.38-.52.83-.81,1.22-1.2,1.6-2.9,2-4.4,1.04-1.46-.93-1.94-2.76-.97-4.42,2.35-4.01,5.78-6.78,10.09-8.47.58-.23,1.17-.43,2.17-.8-.8-.56-1.32-1.13-1.95-1.34-2.84-.9-5.69-1.84-8.59-2.49-2.17-.49-3.43-1.62-3.27-3.59.15-1.88,1.49-2.91,3.7-2.79,4.34.24,8.34,1.62,12.27,3.77.17-.5.35-.92.46-1.36,1.04-4.28,3.23-7.86,6.55-10.75,1.92-1.67,3.87-1.76,5.19-.27,1.36,1.53,1.04,3.34-.93,5.05-2.38,2.07-3.98,4.57-4.6,8,4.21-2.53,8.44-4.09,13.06-4.4,2.41-.16,3.95.94,4.08,2.88.13,1.85-1.32,3.16-3.69,3.45-3.57.43-6.97,1.38-10.22,3.79.91.36,1.58.62,2.24.88,3.97,1.54,7.13,4.11,9.52,7.62,1.47,2.16,1.31,4.02-.36,5.18-1.69,1.17-3.4.63-4.9-1.56-2.2-3.19-5.14-5.23-9.16-5.94v54.66h20.15c0-.78,0-1.65,0-2.53,0-43.56,0-87.12.01-130.68,0-.97.02-1.98.29-2.89.46-1.53,1.65-2.2,3.24-2.06,1.51.13,2.47.97,2.73,2.45.17.96.16,1.95.16,2.93,0,43.28,0,86.56,0,129.84,0,.97,0,1.93,0,3.01h23.8c0-1.51,0-3.02,0-4.53,0-3.36-.04-6.72.02-10.08.04-2.12,1.31-3.41,3.18-3.42,1.91-.01,3.15,1.18,3.19,3.38.08,4.06.03,8.12.03,12.18,0,.76,0,1.52,0,2.43h21.64v-42.31h-21.64c0,2.92,0,5.78,0,8.64,0,1.96.05,3.92-.03,5.88-.08,2.15-1.32,3.46-3.14,3.47-1.9.01-3.18-1.38-3.24-3.61-.05-1.82-.01-3.64-.01-5.46,0-3.5,0-7,0-10.5,0-4.25.87-5.1,5.21-5.1,14.01,0,28.01,0,42.02,0,3.64,0,7.28,0,10.92,0,3.75,0,4.78,1.02,4.78,4.7,0,13.87,0,27.73,0,41.6,0,.84,0,1.67,0,2.69h23.8v-2.61c0-29.13,0-58.27,0-87.4,0-.91,0-1.82.11-2.72.2-1.72,1.32-2.66,2.94-2.75,1.76-.1,2.9.93,3.29,2.63.17.74.1,1.53.1,2.3,0,29.34,0,58.69,0,88.03v2.58h20.16v-54.64c-3.42.37-5.98,2.12-8.17,4.53-.56.62-.95,1.38-1.47,2.04-1.15,1.48-2.8,1.85-4.26.99-1.53-.91-2.05-2.7-1.09-4.38,2.32-4.03,5.74-6.81,10.03-8.54.63-.25,1.28-.47,2.26-.84-3.22-2.53-6.73-3.41-10.39-3.85-2.29-.28-3.73-1.74-3.48-3.62.24-1.76,1.61-2.95,3.59-2.71,2.35.28,4.71.68,6.96,1.37,2.18.67,4.22,1.78,6.49,2.77-.55-3.17-2.2-5.62-4.49-7.75-.69-.64-1.65-1.51-1.64-2.27.02-1.1.52-2.49,1.32-3.22,1.21-1.13,2.76-.72,4.02.3,3.59,2.92,5.95,6.64,7.06,11.14.1.4.2.79.26,1.05,3.23-1.03,6.37-2.07,9.55-3.01.92-.27,1.93-.33,2.9-.39,2.22-.13,3.57.89,3.74,2.74.18,1.98-1.07,3.12-3.22,3.63-3.03.71-6,1.72-8.97,2.66-.49.15-.87.62-1.53,1.11.84.34,1.44.6,2.06.84,4.18,1.62,7.51,4.29,9.89,8.1,1.17,1.87.84,3.78-.73,4.79-1.62,1.05-3.35.58-4.64-1.36-2.19-3.31-5.17-5.39-9.31-6.22v54.96c8.26-.8,15.82.08,18.95,9.49v5.04Zm-107.56-8.17c-31.08,0-62.17,0-93.25,0-.98,0-1.96,0-2.94.1-2.71.28-4.71,2.33-5.05,5.08-.31,2.56,1.4,5.21,3.99,5.94,1.12.31,2.34.4,3.52.4,62.45.02,124.9.02,187.35,0,1.24,0,2.54-.09,3.72-.44,2.32-.68,3.92-3.05,3.87-5.43-.04-2.31-1.6-4.65-3.81-5.27-1.25-.35-2.63-.36-3.94-.36-31.15-.02-62.31-.01-93.46-.01Zm3.37-48.99v42.39h21.54v-42.39h-21.54Z"/><path class="cls-2" d="m171.07,0c4.17,1.69,5.95,4.77,5.57,9.25-.15,1.81-.02,3.64-.03,5.46,0,6.17-1.2,7.82-7.29,9.77,0,.73,0,1.55,0,2.37,0,19.04,0,38.08,0,57.12,0,.77.06,1.56-.11,2.3-.4,1.7-1.56,2.72-3.31,2.61-1.62-.1-2.72-1.06-2.92-2.78-.09-.83-.1-1.68-.1-2.51,0-18.83,0-37.66,0-56.49,0-.83,0-1.66,0-2.65H52.35c0,2.04,0,4.06,0,6.07,0,3.99.04,7.98-.02,11.97-.04,2.31-1.28,3.68-3.14,3.71-1.95.03-3.26-1.43-3.27-3.81-.03-5.94-.01-11.89-.01-17.92-.61-.18-1.12-.35-1.65-.49-3.36-.87-5.49-3.45-5.61-6.95-.08-2.59.12-5.19-.07-7.77-.34-4.48,1.41-7.56,5.58-9.24h126.91Zm-63.23,6.3c-16.8,0-33.6,0-50.41,0-3.5,0-7,.03-10.5-.02-1.43-.02-2.03.52-1.97,1.98.08,2.17.02,4.34.02,6.51q0,2.98,2.98,2.98c39.77,0,79.53,0,119.3,0,.35,0,.7-.03,1.05,0,1.41.13,2.04-.41,1.98-1.91-.09-2.24-.02-4.48-.02-6.72q0-2.82-2.77-2.83c-19.88,0-39.77,0-59.65,0Z"/><path class="cls-2" d="m119.33,83.7c0,1.89.03,3.78,0,5.67-.07,3.52-2.04,5.76-5.5,5.88-4.12.14-8.26.14-12.38,0-3.46-.12-5.48-2.35-5.52-5.85-.05-3.92-.05-7.84,0-11.76.05-3.57,2.23-5.71,5.8-5.74,3.92-.04,7.84-.03,11.76,0,3.58.03,5.75,2.16,5.84,5.72.05,2.03,0,4.06.01,6.09Zm-6.64,4.96v-10.25h-10.23v10.25h10.23Z"/><path class="cls-2" d="m107.68,129.42c-2.1,0-4.2.03-6.3,0-3.12-.05-5.35-2.08-5.43-5.21-.12-4.26-.11-8.54,0-12.8.07-2.88,1.95-5.02,4.8-5.15,4.53-.21,9.09-.21,13.62-.02,2.96.13,4.86,2.28,4.93,5.25.1,4.2.11,8.4,0,12.59-.08,3.24-2.3,5.29-5.53,5.34-2.03.03-4.06,0-6.09,0Zm5.08-16.71h-10.25v10.29h10.25v-10.29Z"/><path class="cls-2" d="m87.88,83.54c0,2.03.03,4.06,0,6.08-.05,3.22-1.84,5.42-5.04,5.56-4.4.2-8.81.2-13.21-.02-3.11-.15-4.9-2.24-4.98-5.42-.1-4.12-.1-8.25,0-12.38.09-3.5,2.23-5.47,5.78-5.49,3.92-.03,7.83-.03,11.75,0,3.6.03,5.66,2.14,5.7,5.78.02,1.96,0,3.92,0,5.87Zm-6.46,5.12v-10.25h-10.29v10.25h10.29Z"/><path class="cls-2" d="m127.37,83.43c0-2.1-.04-4.2.01-6.29.08-2.99,2.16-5.16,5.17-5.22,4.26-.09,8.53-.08,12.8,0,2.93.05,5.1,2.04,5.2,4.96.15,4.4.15,8.81.02,13.21-.09,3.07-2.09,5.03-5.26,5.15-4.19.15-8.39.16-12.59,0-3.41-.12-5.31-2.29-5.35-5.72-.03-2.03,0-4.06,0-6.08h0Zm6.43-5.06v10.25h10.31v-10.25h-10.31Z"/><path class="cls-2" d="m87.88,117.69c0,2.1.03,4.2,0,6.29-.06,3.27-2.14,5.4-5.37,5.43-4.19.04-8.39.05-12.59,0-2.95-.04-5.11-1.95-5.21-4.91-.15-4.47-.14-8.95,0-13.42.08-2.74,1.85-4.69,4.6-4.81,4.67-.2,9.36-.2,14.03.02,2.78.13,4.46,2.28,4.53,5.1.05,2.1.01,4.19.02,6.29Zm-6.44,5.37v-10.34h-10.24v10.34h10.24Z"/><path class="cls-2" d="m139.07,129.42c-2.17,0-4.34.04-6.5-.01-2.99-.07-5.14-2.19-5.19-5.18-.06-4.26-.05-8.53,0-12.79.04-2.89,1.8-5.04,4.7-5.17,4.6-.21,9.22-.2,13.82,0,2.84.13,4.57,2.1,4.66,4.98.13,4.33.14,8.67,0,13-.1,3.2-2.23,5.11-5.41,5.16-2.03.03-4.06,0-6.08,0Zm-5.36-6.45h10.35v-10.23h-10.35v10.23Z"/><path class="cls-2" d="m107.5,60.94c-2.03,0-4.06.04-6.09,0-3.15-.07-5.37-2.06-5.46-5.17-.13-4.26-.11-8.53,0-12.8.08-3.04,2.11-5.13,5.18-5.23,4.33-.14,8.67-.15,13,0,3.16.11,5.11,2.26,5.17,5.46.08,4.06.08,8.11,0,12.17-.06,3.47-2.23,5.52-5.72,5.58-2.03.03-4.06,0-6.09,0h0Zm-4.97-16.78v10.36h10.23v-10.36h-10.23Z"/><path class="cls-2" d="m87.87,49.38c0,2.1.04,4.2,0,6.29-.07,3.05-2.11,5.19-5.11,5.24-4.33.08-8.67.07-13,0-2.83-.05-4.95-1.99-5.05-4.85-.15-4.47-.14-8.95-.01-13.41.08-2.83,1.95-4.78,4.76-4.88,4.54-.16,9.08-.17,13.62,0,2.87.11,4.7,2.24,4.78,5.1.06,2.17.01,4.33.02,6.5Zm-6.42,5.17v-10.34h-10.31v10.34h10.31Z"/><path class="cls-2" d="m138.96,60.93c-2.17,0-4.34.06-6.5-.01-2.89-.1-5.02-2.19-5.07-5.07-.07-4.33-.06-8.67,0-13,.04-2.84,1.93-4.97,4.81-5.07,4.53-.16,9.08-.16,13.62,0,2.81.1,4.65,2.05,4.74,4.9.14,4.4.15,8.81,0,13.21-.1,3.08-2.23,4.97-5.31,5.04-2.1.05-4.19,0-6.29,0,0,0,0,0,0,0Zm-5.12-16.75v10.29h10.21v-10.29h-10.21Z"/><path class="cls-1" d="m112.69,88.65h-10.23v-10.25h10.23v10.25Z"/><path class="cls-1" d="m112.76,112.72v10.29h-10.25v-10.29h10.25Z"/><path class="cls-1" d="m81.42,88.67h-10.29v-10.25h10.29v10.25Z"/><path class="cls-1" d="m133.8,78.37h10.31v10.25h-10.31v-10.25Z"/><path class="cls-1" d="m81.44,123.06h-10.24v-10.34h10.24v10.34Z"/><path class="cls-1" d="m133.71,122.97v-10.23h10.35v10.23h-10.35Z"/><path class="cls-1" d="m102.53,44.16h10.23v10.36h-10.23v-10.36Z"/><path class="cls-1" d="m81.45,54.55h-10.31v-10.34h10.31v10.34Z"/><path class="cls-1" d="m133.84,44.18h10.21v10.29h-10.21v-10.29Z"/></g></g></svg>