<?xml version="1.0" encoding="UTF-8"?><svg id="Layer_2" xmlns="http://www.w3.org/2000/svg" viewBox="0 0 211.05 204.77"><defs><style>.cls-1{fill:#007c49;}.cls-2{fill:#009c5d;}</style></defs><g id="Layer_1-2"><g id="Eb2Fo6.tif"><path class="cls-2" d="m0,149.81c6.45-6.65,12.84-13.37,19.4-19.92,2.17-2.16,5.1-2.76,8.18-2.76,27.69.03,55.39.02,83.08.02.81,0,1.62,0,2.66,0,0-5.67.02-11.15-.05-16.62,0-.39-.65-.97-1.11-1.11-3.18-.99-5.05-3.09-5.82-6.31-2.68-11.12-5.45-22.22-8.11-33.35-1.47-6.15,2.09-10.52,8.5-10.56,4.05-.02,8.11,0,12.16,0,.67,0,1.34,0,2.24,0-1.27-5.32-2.46-10.38-3.68-15.43-1.4-5.79-2.84-11.58-4.24-17.37-1.5-6.22,2.2-11.04,8.57-11.08,9.14-.05,18.28-.01,27.42-.01.82,0,1.64,0,2.66,0v-6.99c-1.17,0-2.32.04-3.46,0-2.09-.08-3.57-1.45-3.56-3.24,0-1.79,1.48-3.19,3.58-3.21,4.53-.05,9.07-.05,13.61,0,2.11.02,3.57,1.41,3.59,3.2.01,1.8-1.45,3.17-3.54,3.25-1.15.05-2.3,0-3.56,0v6.99c.81,0,1.54,0,2.27,0,8.59,0,17.19.25,25.77-.08,6.45-.25,11.05,5.13,9.19,11.89-2.8,10.17-5.07,20.48-7.55,30.74-.08.33-.1.67-.2,1.34.9,0,1.68,0,2.46,0,3.92,0,7.83-.02,11.75,0,6.56.03,10.02,4.34,8.51,10.7-2.62,11-5.3,21.98-7.94,32.97-.82,3.43-2.77,5.77-6.52,6.69v2.38c0,13.06,0,26.11-.01,39.17,0,.87.08,2-.4,2.57-.71.85-1.89,1.79-2.86,1.78-.97,0-2.13-.98-2.82-1.84-.47-.58-.39-1.7-.39-2.57-.02-12.85-.01-25.7-.01-38.55,0-.82,0-1.63,0-2.61h-69.97v88.4h15.94c0-.76,0-1.5,0-2.23,0-6.94-.02-13.88,0-20.82.02-6,3.78-9.74,9.79-9.75,6.12-.01,12.23-.02,18.35,0,5.54.03,9.3,3.76,9.33,9.3.04,7.08.01,14.16.01,21.23,0,.74,0,1.48,0,2.4,4.58,0,8.96.1,13.33-.04,2.16-.07,3.2-1.57,3.2-4,.02-8.66,0-17.32.02-25.97,0-.81.04-1.67.29-2.43.51-1.58,1.73-2.29,3.36-2.09,1.74.22,2.66,1.38,2.8,3.06.11,1.37.04,2.75.04,4.12,0,7.7.01,15.39,0,23.09-.01,6.48-4.05,10.61-10.51,10.61-56.07.02-112.15.02-168.22,0-8.84,0-14.77-4.71-17.16-13.39-.07-.26-.23-.49-.34-.74,0-13.61,0-27.21,0-40.82Zm113.22,4.54H6.48c-.04.79-.09,1.4-.09,2.02,0,10.1-.02,20.2,0,30.3.02,7.65,4.21,11.78,11.91,11.78,15.11,0,30.23,0,45.34,0h2.34c0-1.01,0-1.75,0-2.5,0-7.01-.01-14.01,0-21.02.01-5.66,3.75-9.44,9.39-9.46,6.18-.02,12.37-.02,18.55,0,5.71.02,9.51,3.84,9.53,9.58.02,7.01,0,14.01,0,21.02,0,.73,0,1.46,0,2.2h9.76v-43.91Zm68.01-95.25c.1-.36.19-.6.25-.86,2.65-10.92,5.29-21.83,7.93-32.75.74-3.06.11-3.87-3.08-3.87-6.25-.01-12.5,0-18.75,0-14.98,0-29.95,0-44.93,0-3.1,0-3.8.87-3.07,3.88,2.55,10.52,5.16,21.02,7.63,31.56.39,1.66.97,2.18,2.69,2.18,16.42-.07,32.84-.04,49.26-.05.67,0,1.35-.06,2.07-.09Zm-26.57,6.57c-15.93,0-31.87,0-47.8,0-2.43,0-2.86.55-2.32,2.82,2.59,10.72,5.22,21.42,7.74,32.16.46,1.96,1.35,2.64,3.38,2.63,24.93-.07,49.87-.04,74.8-.04,5.5,0,5.64-.1,7.05-5.42.07-.26.12-.54.18-.8,2.27-9.52,4.54-19.05,6.79-28.58.52-2.19-.02-2.76-2.43-2.76-15.8,0-31.6,0-47.39,0Zm-41.46,81.96v-14.01h-2.79c-26.73,0-53.45.08-80.18-.08-4.06-.02-7.07,1-9.71,4.1-2.91,3.42-6.23,6.49-9.64,9.99h102.31Zm53.47,50.72c.07-.41.18-.74.18-1.06.01-7.42.04-14.83,0-22.25-.02-2.39-.97-3.23-3.53-3.24-5.84-.03-11.68-.03-17.51,0-2.74.01-3.57.87-3.57,3.58-.01,7.07,0,14.15,0,21.22,0,.59.09,1.17.14,1.75h24.31Zm-69.68,0c0-7.71,0-15.25,0-22.79,0-2.97-.78-3.75-3.8-3.76-5.63-.02-11.25-.02-16.88,0-3.14,0-3.9.76-3.9,3.88-.01,6.93,0,13.86,0,20.79,0,.6.08,1.19.14,1.88h24.45Z"/><path class="cls-2" d="m31.91,31.21c-4.21-3.74-8.27-7.33-12.31-10.94-3.79-3.38-3.45-5.46,1.16-7.44,2.71-1.16,5.43-2.29,8.1-3.53,1.61-.75,3.1-.73,4.74-.08,6.63,2.62,13.3,5.11,19.92,7.74,1.3.52,2.23.4,3.39-.37,7.03-4.68,14.15-9.21,21.15-13.93,5.38-3.63,10.74-3.45,15.98-.04,2.33,1.51,4.41,3.5,6.32,5.53,1.96,2.08,1.55,4.16-.83,5.67-21.28,13.47-42.53,26.98-63.87,40.35-7.74,4.85-17.54,4.02-24.62-1.75-2.34-1.91-4.65-3.87-6.91-5.87-2.31-2.04-1.97-3.91.34-5.96,3.61-3.21,7.61-4.24,12.12-2.81,5.03,1.6,9.01.41,12.25-3.72.79-1.01,1.9-1.78,3.07-2.85Zm-20.56,12.33c-.06.2-.12.41-.17.61.99.84,1.98,1.69,2.97,2.53,5.97,5.11,12.63,5.59,19.32,1.36,17.06-10.78,34.12-21.56,51.18-32.35,2.87-1.82,5.73-3.66,8.63-5.51-5.08-4.88-8.52-4.39-12.21-1.88-7.49,5.1-15.14,9.97-22.67,15-1.58,1.06-3.01,1.26-4.8.54-6.49-2.59-13.11-4.88-19.52-7.65-3.15-1.36-5.21.21-7.89,1.36,4.17,3.7,8.08,7.15,11.96,10.65,2.35,2.12,2.33,3.91,0,6.05-2.99,2.74-6.14,5.32-8.97,8.21-2.18,2.22-4.56,3.12-7.56,2.6-.61-.11-1.22-.16-1.83-.25-2.81-.42-5.62-.84-8.43-1.26Z"/><path class="cls-2" d="m30.54,82.45c-.88-.76-2.18-1.37-2.53-2.32-.35-.95.13-2.3.5-3.38.16-.48.91-.78,1.43-1.11,9.79-6.22,19.59-12.42,29.39-18.63.46-.29.93-.58,1.43-.8,1.56-.69,2.86-.2,3.8,1.1.96,1.33.82,2.73-.26,3.96-.4.45-.95.79-1.47,1.12-9.85,6.25-19.7,12.49-29.57,18.72-.74.47-1.57.79-2.72,1.36Z"/><path class="cls-2" d="m154.65,123c-5.01,0-10.02,0-15.03,0-2.36,0-3.8-1.17-3.87-3.06-.07-1.84,1.41-3.31,3.68-3.32,10.09-.05,20.18-.05,30.27,0,2.34.01,3.61,1.41,3.49,3.42-.1,1.88-1.41,2.94-3.71,2.95-4.94.02-9.88,0-14.83,0Z"/><path class="cls-2" d="m37.01,96.43c-.33.47-.75,1.62-1.56,2.14-4.43,2.86-8.94,5.61-13.48,8.32-1.61.96-3.43.47-4.35-.95-1-1.54-.65-3.38,1.06-4.46,4.41-2.78,8.84-5.53,13.33-8.18,2.29-1.35,4.91.06,5.01,3.12Z"/><path class="cls-1" d="m96.98,198.34h-24.45c-.05-.69-.14-1.28-.14-1.88,0-6.93-.02-13.86,0-20.79,0-3.12.76-3.88,3.9-3.88,5.63-.02,11.25-.02,16.88,0,3.02.01,3.79.79,3.8,3.76,0,7.54,0,15.08,0,22.79Z"/><path class="cls-2" d="m35.88,165.46c5.01,0,10.02-.01,15.02,0,2.34,0,3.77,1.23,3.77,3.14,0,1.91-1.41,3.16-3.77,3.16-10.02.03-20.03.03-30.05,0-2.4,0-3.66-1.24-3.61-3.26.05-1.91,1.34-3.02,3.61-3.03,5.01-.02,10.02,0,15.02,0Z"/><path class="cls-2" d="m149.21,40.67c-.03,1.88-1.72,3.53-3.59,3.52-1.92-.02-3.46-1.62-3.45-3.59.01-2,1.52-3.48,3.53-3.46,1.96.02,3.55,1.62,3.52,3.53Z"/><path class="cls-2" d="m166.19,40.65c0,1.95-1.59,3.56-3.49,3.55-1.88-.01-3.5-1.67-3.5-3.57,0-1.97,1.54-3.48,3.52-3.48,2.02,0,3.48,1.48,3.47,3.5Z"/><path class="cls-2" d="m155.14,95.34c-8.79,0-17.58,0-26.38,0-3.47,0-4.52-1.06-4.52-4.58-.01-4.33-.02-8.65,0-12.98.02-3.07,1.18-4.2,4.27-4.2,17.79,0,35.58,0,53.37,0,3.14,0,4.27,1.07,4.29,4.16.04,4.46.03,8.93,0,13.39-.02,3.12-1.13,4.2-4.25,4.21-8.93,0-17.86,0-26.79,0Zm24.53-6.56v-8.58h-48.84v8.58h48.84Z"/><path class="cls-1" d="m179.67,88.78h-48.84v-8.58h48.84v8.58Z"/></g></g></svg>