<?xml version="1.0" encoding="UTF-8"?><svg id="Layer_2" xmlns="http://www.w3.org/2000/svg" viewBox="0 0 218.19 218.16"><defs><style>.cls-1{fill:#007c49;}.cls-2{fill:#009c5d;}</style></defs><g id="Layer_1-2"><g id="alPyv7.tif"><path class="cls-2" d="m0,212.62c8.38-16.07,16.76-32.14,25.13-48.22,3.27-6.28,6.54-12.57,9.81-18.86.35-.68.67-1.39,1.08-2.22-1.93-1.63-3.81-3.24-5.72-4.82-1.45-1.2-2.19-2.66-2.19-4.61.03-15.62.01-31.24.03-46.86,0-2.65,1.42-4.43,3.65-4.74,2.11-.29,4.2,1.05,4.69,3.14.19.81.15,1.69.15,2.54,0,14.2.02,28.4-.02,42.6,0,1.38.34,2.33,1.45,3.26,10.33,8.56,20.6,17.2,30.91,25.79.56.47,1.32.97,1.99.98,4.39.09,8.78.04,13.46.04,0-2.1-.09-4.07.02-6.02.15-2.6,1.97-4.41,4.29-4.42,2.34-.01,4.07,1.76,4.25,4.4.06.85.03,1.7.03,2.56,0,1.05,0,2.11,0,3.33h12.89c0-1.82-.04-3.64,0-5.46.06-2.15.83-3.9,3.06-4.58,2.89-.88,5.36,1.04,5.56,4.38.11,1.83.02,3.68.02,5.67h12.87c0-1.85-.03-3.74,0-5.62.05-2.76,1.76-4.63,4.2-4.66,2.42-.03,4.22,1.87,4.29,4.58.04,1.84,0,3.68,0,5.82,4.02,0,7.96.02,11.9-.04.41,0,.83-.48,1.21-.8,10.4-8.69,20.82-17.38,31.16-26.14.72-.61,1.29-1.87,1.29-2.82.07-32.73.07-65.46.05-98.2-.01-13.94-10.11-24.07-24.03-24.09-32.31-.03-64.62-.04-96.93,0-13.79.02-23.85,10.16-23.93,23.98-.02,4.4.01,8.8,0,13.21-.01,3.09-1.7,5.01-4.31,4.97-2.53-.03-4.22-1.91-4.18-4.87.09-6.45-.18-12.95.52-19.34C30.04,13.85,41.67,2.32,54.25.49c2.03-.29,4.09-.46,6.14-.47C92.84,0,125.29,0,157.75,0c15.63,0,28.13,9.92,31.61,25.14.49,2.12.67,4.35.67,6.53.04,33.94.02,67.88.06,101.82,0,2.28-.8,3.93-2.55,5.3-1.78,1.4-3.48,2.91-5.36,4.49.41.85.77,1.67,1.18,2.47,11.21,21.57,22.42,43.14,33.62,64.71,1.96,3.78,1.6,5.32-1.78,7.69h-2.56c-1.13-1.31-2.56-2.45-3.34-3.94-11-21.01-21.92-42.08-32.86-63.12-.34-.65-.73-1.28-1.15-2.03-1.51,1.25-2.83,2.44-4.25,3.49-1.19.87-1.44,1.68-.87,3.16,7.11,18.34,14.13,36.71,21.17,55.07,1.48,3.85,1.11,5.09-2.13,7.37h-2.56c-1.11-1.4-2.61-2.64-3.25-4.22-3.36-8.34-6.54-16.75-9.66-25.18-.61-1.64-1.38-2.18-3.16-2.18-40.97.06-81.94.04-122.91.04h-2.35c-1.09,2.86-2.12,5.6-3.24,8.54,1.18,0,2.03,0,2.88,0,33.37,0,66.75,0,100.12,0,.85,0,1.71-.05,2.55.07,2.07.28,3.6,2.04,3.64,4.09.04,2.14-1.51,3.99-3.66,4.29-.7.1-1.42.06-2.13.06-10.44,0-20.88,0-31.31,0-24.43,0-48.85.02-73.28-.04-1.63,0-2.39.49-2.9,1.99-.95,2.82-1.91,5.65-3.19,8.32-.76,1.57-2.15,2.83-3.26,4.23h-2.56c-3.2-2.24-3.59-3.51-2.2-7.17,2.8-7.34,5.61-14.67,8.42-22,4.28-11.16,8.58-22.32,12.82-33.5.24-.64.25-1.78-.14-2.17-1.54-1.53-3.28-2.85-5.03-4.31-.48.9-.84,1.59-1.2,2.28-10.91,20.98-21.8,41.98-32.77,62.93-.78,1.49-2.21,2.63-3.34,3.94H0c0-1.85,0-3.69,0-5.54Zm162.56-52.9c-3.2,2.67-6.18,5.07-9.06,7.58-1.53,1.34-3.17,1.89-5.22,1.89-26.05-.05-52.11-.05-78.16,0-2.2,0-3.95-.58-5.59-2.03-2.86-2.52-5.84-4.9-8.9-7.43-2.38,6.24-4.67,12.21-6.97,18.25h120.9c-2.35-6.12-4.62-12.05-7-18.26Z"/><path class="cls-2" d="m109.03,93.73c-15.55,0-31.1,0-46.65,0-8.5,0-13.79-5.3-13.8-13.8,0-11.86,0-23.71,0-35.57,0-8.35,5.34-13.67,13.71-13.67,31.17,0,62.34,0,93.51,0,8.5,0,13.79,5.3,13.79,13.8,0,11.86,0,23.71,0,35.57,0,8.35-5.34,13.67-13.71,13.67-15.62,0-31.24,0-46.86,0Zm-4.29-54.54h-2.25c-13.14,0-26.28,0-39.41,0-4.49,0-5.98,1.49-5.98,6.02,0,11.29,0,22.58,0,33.87,0,4.69,1.44,6.14,6.07,6.14,13.14,0,26.28,0,39.41,0h2.16v-46.03Zm8.71,46.03h2.17c13.21,0,26.42,0,39.63,0,4.33,0,5.84-1.55,5.85-5.94,0-11.36,0-22.72,0-34.08,0-4.52-1.49-6.01-5.99-6.01-13.14,0-26.28,0-39.41,0h-2.24v46.03Z"/><path class="cls-2" d="m62.95,104.83c7.93,0,14.55,6.61,14.53,14.49-.02,7.91-6.63,14.46-14.56,14.46-7.98,0-14.47-6.51-14.45-14.49.02-8,6.49-14.47,14.49-14.46Zm5.84,14.42c-.03-3.29-2.74-5.98-5.96-5.9-3.23.08-5.83,2.83-5.76,6.11.06,3.14,2.74,5.79,5.87,5.79,3.24,0,5.89-2.7,5.86-6Z"/><path class="cls-2" d="m169.6,119.49c-.08,7.95-6.67,14.37-14.66,14.29-7.95-.08-14.37-6.66-14.29-14.66.08-7.95,6.67-14.37,14.66-14.29,7.95.08,14.37,6.66,14.29,14.66Zm-14.39,5.76c3.21-.06,5.96-2.92,5.86-6.09-.1-3.14-2.81-5.79-5.93-5.81-3.19-.01-5.99,2.79-5.97,5.98.02,3.2,2.86,5.98,6.04,5.91Z"/><path class="cls-2" d="m110.14,133.78c-7.02,0-14.04.02-21.06-.01-2.48-.01-4.13-1.4-4.54-3.63-.34-1.84.83-3.87,2.72-4.54.65-.23,1.38-.3,2.08-.3,13.9-.02,27.8-.02,41.69,0,2.97,0,4.84,1.64,4.89,4.16.05,2.6-1.87,4.32-4.93,4.33-6.95.02-13.9,0-20.85,0Z"/><path class="cls-2" d="m110.16,113.37c-7.02,0-14.04.03-21.06-.02-2.72-.02-4.65-1.86-4.64-4.23,0-2.36,1.95-4.17,4.64-4.29.57-.03,1.13,0,1.7,0,11.91,0,23.83,0,35.74,0,1.49,0,2.98-.02,4.47,0,3.02.06,4.98,1.82,4.91,4.4-.06,2.52-1.9,4.12-4.91,4.13-6.95.03-13.9,0-20.85,0Z"/><path class="cls-2" d="m32.29,69.96c-2.32-.05-4.17-1.95-4.14-4.25.03-2.25,2-4.23,4.23-4.23,2.31,0,4.33,2.1,4.24,4.43-.08,2.31-2,4.1-4.34,4.05Z"/><path class="cls-2" d="m168.74,199.48c-.04,2.27-1.99,4.18-4.26,4.16-2.28-.01-4.2-1.93-4.21-4.21-.02-2.38,1.99-4.33,4.37-4.27,2.28.07,4.15,2.02,4.11,4.31Z"/><path class="cls-1" d="m68.79,119.25c.03,3.3-2.61,6.01-5.86,6-3.13,0-5.81-2.65-5.87-5.79-.06-3.28,2.53-6.03,5.76-6.11,3.22-.08,5.94,2.61,5.96,5.9Z"/><path class="cls-1" d="m155.21,125.25c-3.18.06-6.01-2.71-6.04-5.91-.02-3.19,2.78-6,5.97-5.98,3.12.01,5.83,2.67,5.93,5.81.1,3.17-2.65,6.03-5.86,6.09Z"/></g></g></svg>